<svg id="Capa_1" data-name="Capa 1" xmlns="http://www.w3.org/2000/svg" viewBox="0 0 1614.71 1138.55"><defs><style>.cls-1{fill:#f7ce26;}.cls-2{fill:#fad3b1;}.cls-3{fill:#fea689;}.cls-4{fill:#292929;}.cls-24,.cls-36,.cls-45,.cls-5{fill:#fff;}.cls-6{fill:#00a65a;}.cls-7{fill:#3c8dbc;}.cls-8{font-size:26.61px;font-family:Montserrat-Regular, Montserrat;}.cls-9{letter-spacing:-0.02em;}.cls-10{letter-spacing:-0.01em;}.cls-11{letter-spacing:-0.01em;}.cls-12{letter-spacing:0em;}.cls-13{letter-spacing:-0.01em;}.cls-14{letter-spacing:-0.05em;}.cls-15{font-family:Montserrat-SemiBold, Montserrat;font-weight:600;}.cls-16{letter-spacing:0.03em;}.cls-17{letter-spacing:-0.01em;}.cls-18{letter-spacing:0em;}.cls-19,.cls-24{font-family:Montserrat-ExtraBold, Montserrat;font-weight:800;}.cls-20{letter-spacing:-0.01em;}.cls-21{letter-spacing:0.01em;}.cls-22{letter-spacing:0em;}.cls-23{letter-spacing:0em;}.cls-24{font-size:26.07px;}.cls-25{letter-spacing:0em;}.cls-26{letter-spacing:0.01em;}.cls-27{letter-spacing:-0.01em;}.cls-28{letter-spacing:0em;}.cls-29{fill:#f3aa78;}.cls-30{fill:#dbaf8f;}.cls-31{fill:#ebf3fa;}.cls-32{fill:#b5c1cf;}.cls-33{fill:#e47776;}.cls-34,.cls-39,.cls-41,.cls-43{fill:#de684e;}.cls-35{fill:#fefdfd;}.cls-36{opacity:0.55;}.cls-37{fill:#373449;}.cls-38,.cls-44{fill:none;stroke-linecap:round;stroke-miterlimit:10;}.cls-38{stroke:#373449;stroke-width:2px;}.cls-39,.cls-42{opacity:0.54;}.cls-40{opacity:0.98;}.cls-41{opacity:0.5;}.cls-43{opacity:0.43;}.cls-44{stroke:#fff;}.cls-45{opacity:0.58;}.cls-46{fill:#3e479b;}</style></defs><path class="cls-1" d="M519.39,455.87c125.68-138,107.94-242.32,355.52-242.32,216.87,0,274,183.25,289.67,213.73s116.49,183.1,158,225,93.63,83.69,170.75,141.45c55.44,41.52,68.84,138.77,71.06,184.35,4.25,87.16-56.69,160.45-133.22,160.45H323.79c-73.71,0-176.93-135.29-154.16-300.24S344.24,648.25,519.39,455.87Z"/><path class="cls-2" d="M345.57,1138.55H630.91l23.67-63.73a90.14,90.14,0,0,1,47.48-50.65c20.66-9.35,48.48-26.32,75.44-56.59,52.47-58.89,80.3-122.06,80.3-122.06L681,844.65s15.91-98.92-72-230.29a74.44,74.44,0,0,1-12.22-47.79l8.34-95.82S664.83,404,628.19,321.2c0,0-35-48.51-48.94-30.75,0,0-105.85,252-115.48,289.52s-22.49,61-9.64,178.82a714.82,714.82,0,0,1,4.58,78.56A278.84,278.84,0,0,1,431.91,956Z"/><path class="cls-2" d="M609.75,975.05c-26.49-29.4-63.28-24.76-102-38.18s-51.1-110.11-51.1-110.11v0c.06,3.65.09,7.2.09,10.61A278.84,278.84,0,0,1,430,956l-86.35,182.53H629l23.67-63.73a90.19,90.19,0,0,1,47.49-50.65c17.58-8,40.35-21.44,63.36-43.94C684.88,1013.27,636.23,1004.45,609.75,975.05Z"/><path class="cls-3" d="M1015.39,122.4s60.44-40.45,74.24-13.8-78.52,121-78.52,121Z"/><path class="cls-3" d="M1015.39,298.65s60.44-40.45,74.24-13.8-78.52,121-78.52,121Z"/><path class="cls-3" d="M1015.39,418.73s60.44-40.45,74.24-13.8-78.52,121-78.52,121Z"/><path class="cls-4" d="M973.65,77.07H641.85a44.75,44.75,0,0,0-44.74,44.74v678.1a44.75,44.75,0,0,0,44.74,44.74h331.8a44.74,44.74,0,0,0,44.74-44.74V121.81A44.75,44.75,0,0,0,973.65,77.07Z"/><rect class="cls-5" x="618.8" y="138.05" width="377.9" height="645.62"/><rect class="cls-5" x="618.8" y="138.05" width="377.9" height="645.62"/><rect class="cls-6" x="651.34" y="273.11" width="312.82" height="91.81"/><rect class="cls-7" x="720.77" y="709.36" width="173.96" height="51.05"/><text class="cls-8" transform="translate(717.37 406.49)">Juani<tspan class="cls-9" x="72.11" y="0">t</tspan><tspan x="82.41" y="0">o </tspan><tspan class="cls-10" x="106.07" y="0">P</tspan><tspan x="124.83" y="0">é</tspan><tspan class="cls-11" x="140.9" y="0">r</tspan><tspan class="cls-12" x="151.23" y="0">e</tspan><tspan x="167.17" y="0">z</tspan><tspan class="cls-13" x="-18.33" y="31.93">E</tspan><tspan x="-0.75" y="31.93">scuela </tspan><tspan class="cls-14" x="91.06" y="31.93">T</tspan><tspan x="104.87" y="31.93">e</tspan><tspan class="cls-10" x="120.94" y="31.93">r</tspan><tspan x="131.27" y="31.93">esa II</tspan><tspan class="cls-15"><tspan class="cls-16" x="-26.04" y="91.18">T</tspan><tspan x="-9.22" y="91.18">º Salida de </tspan><tspan class="cls-17" x="141.58" y="91.18">C</tspan><tspan class="cls-18" x="160.79" y="91.18">asa</tspan></tspan><tspan class="cls-19"><tspan class="cls-20" x="55.84" y="150.43">3</tspan><tspan x="71.62" y="150.43">5</tspan><tspan class="cls-21" x="87.77" y="150.43">.</tspan><tspan class="cls-22" x="95.57" y="150.43">8</tspan><tspan class="cls-23" x="113.43" y="150.43">º</tspan></tspan><tspan class="cls-15"><tspan class="cls-16" x="-46.12" y="209.68">T</tspan><tspan x="-29.3" y="209.68">º Salida de </tspan><tspan class="cls-17" x="121.5" y="209.68">E</tspan><tspan x="139.2" y="209.68">scuela</tspan></tspan><tspan class="cls-19"><tspan x="57.12" y="268.93">_____</tspan></tspan></text><text class="cls-24" transform="translate(742.81 311.51)">Semana 1<tspan class="cls-25" x="-34.32" y="31.28">L</tspan><tspan x="-18.47" y="31.28">u</tspan><tspan class="cls-26" x="-0.43" y="31.28">n</tspan><tspan x="17.92" y="31.28">es 2 Mar</tspan><tspan class="cls-27" x="132.49" y="31.28">z</tspan><tspan class="cls-28" x="146.83" y="31.28">o</tspan></text><rect class="cls-1" x="618.8" y="138.05" width="377.9" height="110.91"/><path d="M727.86,172.35v5.81H742v8.63H727.86v10.86H716.42V163.72H744v8.63Z"/><path d="M775.61,171.14v26.51H765.19v-2.52a10.24,10.24,0,0,1-7.51,3c-6.35,0-11.15-3.74-11.15-12.36V171.14h11v12.74c0,3.79,1.31,5,3.44,5,1.89,0,3.73-1.4,3.73-5.33V171.14Z"/><path d="M799.53,170.65v9.7a14.74,14.74,0,0,0-2.42-.2c-3.3,0-5.62,1.51-5.62,5.72v11.78h-11V171.14H791V174C792.89,171.77,795.85,170.65,799.53,170.65Z"/><path d="M832.14,171.14v21.23c0,10.27-6,15.17-16.14,15.17-5.23,0-10-1.12-13.28-3.3l3.69-7.46a15.25,15.25,0,0,0,8.48,2.62c4.51,0,6.3-2,6.3-5.53v-.48c-1.65,1.89-4.07,2.81-7.32,2.81a12.78,12.78,0,0,1,0-25.55c3.64,0,6.2,1.12,7.85,3.49v-3ZM821.29,183.4a4.17,4.17,0,0,0-4.51-4.21c-2.57,0-4.56,1.64-4.56,4.21a4.54,4.54,0,0,0,9.07,0Z"/><path class="cls-5" d="M835.37,184.37c0-8.05,6.45-13.72,15.42-13.72s15.41,5.67,15.41,13.72-6.4,13.77-15.41,13.77S835.37,192.42,835.37,184.37Zm19.73,0c0-3.44-1.89-5.19-4.31-5.19s-4.32,1.75-4.32,5.19,1.89,5.23,4.32,5.23S855.1,187.81,855.1,184.37Z"/><path class="cls-5" d="M899.08,182.53v15.12h-11V184.42c0-3.3-1.26-4.56-3.25-4.56-2.23,0-4.12,1.41-4.12,5.33v12.46h-11V171.14h10.42v2.61a11.08,11.08,0,0,1,8-3.1C894.33,170.65,899.08,174.19,899.08,182.53Z"/><circle class="cls-5" cx="850.79" cy="160.43" r="6.64"/><path d="M739.07,223.66a9.43,9.43,0,0,1,9.75-9.56,9.06,9.06,0,0,1,6.56,2.51l-.56.6a8.26,8.26,0,0,0-6-2.27,8.72,8.72,0,1,0,0,17.44,8.29,8.29,0,0,0,6-2.3l.56.6a8.94,8.94,0,0,1-6.56,2.54A9.43,9.43,0,0,1,739.07,223.66Z"/><path d="M757.35,226.09a6.89,6.89,0,1,1,6.89,7.1A6.77,6.77,0,0,1,757.35,226.09Zm12.88,0a6,6,0,1,0-6,6.29A5.9,5.9,0,0,0,770.23,226.09Z"/><path d="M787.06,224.88v8.23h-.89v-8.18c0-3.35-1.78-5.1-4.83-5.1-3.51,0-5.65,2.27-5.65,5.72v7.56h-.89v-14h.87v3.43a5.83,5.83,0,0,1,5.75-3.54C784.84,219,787.06,221,787.06,224.88Z"/><path d="M798.24,232.22a4.19,4.19,0,0,1-2.81,1,3.27,3.27,0,0,1-3.56-3.59v-9.72h-2.65v-.78h2.65V216h.89v3.08h4.61v.78h-4.61v9.59c0,1.89.94,2.94,2.75,2.94a3.38,3.38,0,0,0,2.27-.84Z"/><path d="M807.59,219v.89h-.24c-3.27,0-5.18,2.19-5.18,5.78v7.45h-.89v-14h.86v3.37C803,220.26,804.84,219,807.59,219Z"/><path d="M808.55,226.09a6.88,6.88,0,1,1,6.88,7.1A6.76,6.76,0,0,1,808.55,226.09Zm12.87,0a6,6,0,1,0-6,6.29A5.9,5.9,0,0,0,821.42,226.09Z"/><path d="M826,213.08h.89v20H826Z"/><path d="M841.66,224v9.07h-.87V230.3a5.41,5.41,0,0,1-5.21,2.89c-3.15,0-5-1.59-5-3.94,0-2.05,1.3-3.83,5.11-3.83h5.1V224c0-2.78-1.48-4.24-4.32-4.24a7.24,7.24,0,0,0-5,1.89L831,221a8.12,8.12,0,0,1,5.51-2C839.82,219,841.66,220.74,841.66,224Zm-.89,5v-2.92h-5.11c-3,0-4.21,1.3-4.21,3.05,0,2,1.57,3.24,4.19,3.24A5.08,5.08,0,0,0,840.77,229.06Z"/><path d="M859,213.08v20h-.86v-3.83a6.4,6.4,0,0,1-6,3.91,7.1,7.1,0,0,1,0-14.2,6.4,6.4,0,0,1,6,3.86v-9.77Zm-.89,13a6,6,0,1,0-6,6.29A5.91,5.91,0,0,0,858.09,226.09Z"/><path d="M862.66,226.09a6.88,6.88,0,1,1,6.88,7.1A6.76,6.76,0,0,1,862.66,226.09Zm12.87,0a6,6,0,1,0-6,6.29A5.9,5.9,0,0,0,875.53,226.09Z"/><rect class="cls-5" x="727.2" y="109.67" width="161.71" height="8.09" rx="2.07"/><path class="cls-2" d="M589.59,528.57s2.28,8.48,7.44,12.65l6.12-70.47s43.94-49.1,33.32-115.32a98.94,98.94,0,0,0-32.15-58.69c-9.84-8.65-20.66-14.43-27-6.29,0,0-49.77,118.53-84.16,205.1Z"/><path class="cls-3" d="M586.24,360.06c13.76-6.32,20.94-42.11,23.51-58.19-11-11.1-24.88-21.1-32.46-11.42,0,0-11,26.1-26.14,62.75C561.53,359,576,364.79,586.24,360.06Z"/><path class="cls-29" d="M932.78,563.26s-51,4.29-52.83,17.85,2.15,37.48,50.33,42.12h49.91S965.26,581.82,966,580.39,932.78,563.26,932.78,563.26Z"/><path class="cls-2" d="M850.89,765.59a13.84,13.84,0,0,0-5.4,19.17C869,825.27,962.37,986.25,970.79,999.35c9.64,15,33.19,50.32,111.36,68.53s110.29,70.67,110.29,70.67h240.92s-56.75-90-103.87-323.37c0,0-36.4-193.81-104.93-187.38,0,0-41.76-43.9-82.45-35.34,0,0-77.09-46-121-46L915.67,421.8c-10.44-12.34-28.84-14.75-41.67-4.94-4.13,3.16-7.27,7.34-8.14,12.85-3.22,20.34,23.55,71.74,66.38,133.84S1081.08,822.67,1035,909.41c0,0-47.12-35.34-87.81-92.09C913.16,769.8,873.08,753.81,850.89,765.59Z"/><path class="cls-3" d="M1021.51,546.47A438.83,438.83,0,0,1,1061,585.09c16.73,18.2,37.85,45.18,50.25,66,15.63,25.77,26,48.37,30.83,76.75l-.31.06c-5.62-26.66-20.3-55.37-33.08-75.21-9.57-15.51-27.28-40.15-49.6-66-11.22-12.93-25.44-28.21-37.8-40Z"/><path class="cls-3" d="M1141.42,592.13c11.39,5.82,21.54,14,30.51,23.13a147.55,147.55,0,0,1,23.12,30.85,150.41,150.41,0,0,1,14.47,35.72c2.77,11.64,4.56,19.54,4.85,38l-.32,0a186.73,186.73,0,0,0-7-37.29c-3.61-11.75-8.69-24.38-14.84-34.86a165.45,165.45,0,0,0-22.19-30.7c-8.06-8.83-18.61-18.35-28.81-24.57Z"/><path class="cls-3" d="M1223.67,626.9c10.07,7.61,20.27,21.09,25.21,30.2a136.13,136.13,0,0,1,14.39,36.71c2.38,8.69,3,17.14,3.36,26l-.32.05c-1.48-8.57-2.42-15-5.47-25.34a177.26,177.26,0,0,0-14.62-36c-3.75-7.48-13.47-22.29-22.69-31.42Z"/><path class="cls-3" d="M899.52,815.43c2.13-10.84-10.5-28-22-41a26.67,26.67,0,0,0-28.4-7.73,13.87,13.87,0,0,0-3.67,18.06c6.31,10.89,17.68,30.48,31.08,53.55C886.6,833.2,897.54,825.47,899.52,815.43Z"/><path class="cls-3" d="M909.64,470.71c6.09-1.22,33.73-10.41,32-15.45h0l-27.25-32.21a31.07,31.07,0,0,0-20.78-10.86h-.13c-.22,0-.72-.06-1.42-.06-3.66,0-12.65,1-14.63,10.94s14.22,33.53,21.35,43.41A10.77,10.77,0,0,0,909.64,470.71Z"/><path class="cls-2" d="M1192.44,1138.55h240.92s-37.21-59-76.38-205.34c-17.19,107.77-112,101.56-149.67,107.54-43.33,6.88-211.55-28.19-235.12-39.24,10.48,16,35.33,49,110,66.37C1160.31,1086.08,1192.44,1138.55,1192.44,1138.55Z"/><path class="cls-2" d="M945,583.09C992.22,659,1077,833.34,1035,909.41l27.83,27.46s70.31-77.89-41.58-249.68A1144.52,1144.52,0,0,0,945,583.09Z"/><rect class="cls-30" x="35.08" y="602.14" width="206.3" height="284.51" transform="translate(174.59 -11.85) rotate(13.27)"/><rect class="cls-2" x="29.9" y="600.92" width="206.3" height="284.51" transform="translate(174.18 -10.7) rotate(13.27)"/><rect class="cls-31" x="44.05" y="620.44" width="178" height="245.49" transform="translate(174.17 -10.7) rotate(13.27)"/><path class="cls-32" d="M222.46,676.43a2.94,2.94,0,0,1-.72-.08L88.53,644.93a3.08,3.08,0,0,1,1.42-6l133.21,31.42a3.08,3.08,0,0,1-.7,6.08Z"/><path class="cls-32" d="M217,695.23a3,3,0,0,1-.72-.09L83.05,663.72a3.08,3.08,0,0,1,1.42-6l133.21,31.42a3.09,3.09,0,0,1-.7,6.09Z"/><path class="cls-32" d="M211.15,714a2.92,2.92,0,0,1-.71-.08L77.23,682.52a3.08,3.08,0,0,1,1.42-6l133.21,31.42a3.08,3.08,0,0,1-.71,6.08Z"/><path class="cls-32" d="M205.67,732.82a2.94,2.94,0,0,1-.71-.09L71.75,701.31a3.08,3.08,0,0,1,1.41-6l133.22,31.42a3.09,3.09,0,0,1-.71,6.09Z"/><path class="cls-1" d="M193.71,640,124.9,623.77a3.84,3.84,0,0,1-2.85-4.61l5.41-23a3.86,3.86,0,0,1,4.62-2.85l68.8,16.23a3.84,3.84,0,0,1,2.85,4.61l-5.41,23A3.85,3.85,0,0,1,193.71,640Z"/><path class="cls-33" d="M288.71,777.48c-14.62.5-29.24.37-43.87.08-6.66-3.55-9.93-8.64-9.48-16.65.6-10.61.07-21.29.2-31.93,0-2.68-.74-3.59-3.5-3.58q-45,.15-90,0c-2.83,0-5.17,1.69-7.93,1.62,2.26-2.6,5.39-3,8.47-3Q187.82,724,233,724a5.27,5.27,0,0,1,4.2,1.45q25.42,25.56,50.93,51A4.64,4.64,0,0,1,288.71,777.48Z"/><path class="cls-34" d="M283.87,936q0-1.69,1.62-1.44A2.28,2.28,0,0,1,283.87,936Z"/><path class="cls-34" d="M288.71,777.48c-14.62.5-29.24.37-43.87.08h0c-6.66-3.55-9.93-8.64-9.48-16.65.6-10.61.07-21.29.2-31.93,0-2.68-.74-3.59-3.5-3.58q-45,.15-90,0c-2.83,0-5.17,1.69-7.93,1.62-4.82,3.16-5.64,8-5.64,13.23q.06,54.59,0,109.17c0,1,.12,2.06.18,3.09q0,36.94-.08,73.89c0,.08,0,.19,0,.34a12.69,12.69,0,0,0,10.16,11.58,22.56,22.56,0,0,0,3.87.54q66.3,0,132.61,0c3.13,0,6.19-.49,8.56-2.87l0,0q0-1.69,1.62-1.44l0,0,.74-.82h0l.68-.85c2.52-2.72,2.47-6.12,2.47-9.49q0-70.9,0-141.82C289.38,780.19,289.88,778.68,288.71,777.48Zm-58.2,71.38c.21-4.66.06-9.34.06-14s.07-9.6,0-14.4c-.05-2.07.41-3.06,2.77-3,4.92.17,9.86.19,14.79,0,2.5-.09,2.68,1.15,2.66,3.08s0,3.71-2.78,3.39a38,38,0,0,0-4.27,0c-4.88,0-6.82,2.85-5.2,7.46.43,1.25,1.29,1.07,2.15,1.1a32.73,32.73,0,0,0,5,0c3.08-.4,4.05.76,3.88,3.84-.12,2.23-.79,2.79-2.93,2.83-8.19.17-8.35.25-8.11,8.7.09,3.5-.44,5.08-4.5,4.87C231,852.54,230.39,851.6,230.51,848.86Zm-34.19-31.39c4,.2,8.06,0,12.08.22,10.22.64,15.82,6,16.17,15.31.42,10.77-5,18-15,19.27-4.61.57-9.34.17-14,.3-1.94,0-2-1.1-2-2.51,0-5.07,0-10.13,0-15.2h0c0-4.81.08-9.61,0-14.42C193.48,818.35,194,817.35,196.32,817.47Zm-30.56,0c4.4.27,8.83-.31,13.21.45,6.41,1.11,9.67,4.71,9.67,10.65A11.42,11.42,0,0,1,179,840.05c-.51.1-1,.15-1.55.22-6.55.82-6.83.84-6.45,7.58.23,4.06-1.06,5-4.9,4.82-2.71-.15-3.18-1.07-3.11-3.43.15-4.8,0-9.61,0-14.41s.08-9.61,0-14.41C162.93,818.32,163.43,817.34,165.76,817.48Z"/><path class="cls-34" d="M286.25,933.72l.68-.85Z"/><path class="cls-34" d="M285.51,934.54l.74-.82Z"/><path class="cls-35" d="M193.57,834.86c0-4.81.08-9.61,0-14.42-.05-2.09.45-3.09,2.79-3,4,.2,8.06,0,12.08.22,10.22.64,15.82,6,16.17,15.31.42,10.77-5,18-15,19.27-4.61.57-9.34.17-14,.3-1.94,0-2-1.1-2-2.51,0-5.07,0-10.13,0-15.2Zm8,.22c0,2.71.13,5.44,0,8.14-.16,2.46.86,3,3.16,3,7.52,0,12-4.44,11.72-11.77-.28-7-5-10.94-12.51-10.56-2,.1-2.38,1-2.34,2.65C201.57,829.39,201.52,832.24,201.52,835.08Z"/><path class="cls-35" d="M163,834.83c0-4.8.09-9.61,0-14.41-.06-2.1.44-3.08,2.77-2.94,4.4.27,8.83-.31,13.21.45,6.41,1.11,9.67,4.71,9.67,10.65A11.42,11.42,0,0,1,179,840.05c-.51.1-1,.15-1.55.22-6.55.82-6.83.84-6.45,7.58.23,4.06-1.06,5-4.9,4.82-2.71-.15-3.18-1.07-3.11-3.43C163.14,844.44,163,839.63,163,834.83Zm7.87-6.15c0,5.86,0,5.86,2.73,5.88,4.29,0,6.49-1.77,6.55-5.34.07-3.73-2.19-5.53-6.7-5.56C168.7,823.62,172,827.31,170.9,828.68Z"/><path class="cls-35" d="M230.57,834.85c0-4.8.07-9.6,0-14.4-.05-2.07.41-3.06,2.77-3,4.92.17,9.86.19,14.78,0,2.51-.09,2.69,1.15,2.67,3.08s0,3.71-2.78,3.39a38,38,0,0,0-4.27,0c-4.88,0-6.82,2.85-5.2,7.46.43,1.25,1.29,1.07,2.15,1.1a32.73,32.73,0,0,0,5,0c3.09-.4,4.05.76,3.88,3.84-.12,2.23-.79,2.79-2.93,2.83-8.19.17-8.35.25-8.11,8.7.09,3.5-.44,5.08-4.5,4.87-3.07-.16-3.65-1.1-3.53-3.84C230.72,844.2,230.57,839.52,230.57,834.85Z"/><path class="cls-34" d="M201.52,835.08c0-2.84,0-5.69,0-8.53,0-1.68.37-2.55,2.34-2.65,7.52-.38,12.23,3.52,12.51,10.56.29,7.33-4.2,11.73-11.72,11.77-2.3,0-3.32-.55-3.16-3C201.65,840.52,201.52,837.79,201.52,835.08Z"/><path class="cls-34" d="M170.9,828.68c1-1.37-2.2-5.06,2.58-5,4.51,0,6.77,1.83,6.7,5.56-.06,3.57-2.26,5.36-6.55,5.34C170.9,834.54,170.9,834.54,170.9,828.68Z"/><circle class="cls-1" cx="299.74" cy="218.81" r="218.81"/><circle class="cls-36" cx="299.74" cy="218.81" r="198.86"/><circle class="cls-5" cx="299.74" cy="218.81" r="178.58"/><rect class="cls-37" x="294.62" y="48.05" width="9.64" height="32.53" rx="2.66"/><rect class="cls-37" x="295.22" y="357.05" width="9.64" height="32.53" rx="2.66"/><rect class="cls-37" x="449.42" y="202.25" width="9.64" height="32.53" rx="2.66" transform="translate(672.75 -235.73) rotate(90)"/><rect class="cls-37" x="140.42" y="202.85" width="9.64" height="32.53" rx="2.66" transform="translate(364.36 73.87) rotate(90)"/><rect class="cls-37" x="404.33" y="98.33" width="9.64" height="21.3" rx="2.66" transform="translate(197 -257.46) rotate(45.02)"/><rect class="cls-37" x="186.34" y="315.79" width="9.64" height="24.05" rx="2.66" transform="translate(287.9 -39.13) rotate(45.02)"/><rect class="cls-37" x="404.76" y="317.72" width="9.64" height="21.3" rx="2.66" transform="translate(931.4 271.09) rotate(135.02)"/><rect class="cls-37" x="185.92" y="98.35" width="9.64" height="24.05" rx="2.66" transform="translate(403.67 53.62) rotate(135.02)"/><rect class="cls-1" x="294.35" y="99.2" width="10.64" height="122.38" rx="2.94"/><rect class="cls-1" x="332.93" y="181.67" width="10.64" height="87.79" rx="2.94" transform="translate(563.81 -112.68) rotate(90)"/><line class="cls-38" x1="380.15" y1="146.42" x2="300.34" y2="218.25"/><circle cx="299.74" cy="218.81" r="19.29"/><rect class="cls-31" x="1291.81" y="317.04" width="298.55" height="217.97" rx="8.38" transform="translate(-60.99 470.71) rotate(-18.17)"/><path class="cls-34" d="M1284,426.25l-15.32-46.7a11.06,11.06,0,0,1,7.06-14l262.62-86.21a11.08,11.08,0,0,1,14,7.07l15,45.59Z"/><rect class="cls-34" x="1312.98" y="424.42" width="33.03" height="26.42" transform="translate(-70.17 436.48) rotate(-18.17)"/><rect class="cls-39" x="1327.4" y="468.35" width="33.03" height="26.42" transform="translate(-83.16 443.17) rotate(-18.17)"/><rect class="cls-39" x="1341.41" y="511.02" width="33.03" height="26.42" transform="translate(-95.77 449.67) rotate(-18.17)"/><rect class="cls-39" x="1366.95" y="406.7" width="33.03" height="26.42" transform="translate(-61.96 452.43) rotate(-18.17)"/><rect class="cls-34" x="1381.37" y="450.63" width="33.03" height="26.42" transform="translate(-74.94 459.12) rotate(-18.17)"/><rect class="cls-39" x="1395.38" y="493.31" width="33.03" height="26.42" transform="translate(-87.55 465.62) rotate(-18.17)"/><g class="cls-40"><rect class="cls-41" x="1419.66" y="389.4" width="33.03" height="26.42" transform="translate(-53.93 468.01) rotate(-18.17)"/><rect class="cls-41" x="1434.08" y="433.33" width="33.03" height="26.42" transform="translate(-66.91 474.7) rotate(-18.17)"/><rect class="cls-34" x="1448.09" y="476" width="33.03" height="26.42" transform="translate(-79.52 481.19) rotate(-18.17)"/></g><g class="cls-42"><rect class="cls-34" x="1473.63" y="371.68" width="33.03" height="26.42" transform="translate(-45.71 483.96) rotate(-18.17)"/><rect class="cls-34" x="1488.05" y="415.61" width="33.03" height="26.42" transform="translate(-58.69 490.64) rotate(-18.17)"/><rect class="cls-34" x="1502.06" y="458.29" width="33.03" height="26.42" transform="translate(-71.31 497.14) rotate(-18.17)"/></g><rect class="cls-43" x="1525.09" y="354.79" width="33.03" height="26.42" transform="translate(-37.88 499.16) rotate(-18.17)"/><rect class="cls-34" x="1539.51" y="398.72" width="33.03" height="26.42" transform="translate(-50.86 505.85) rotate(-18.17)"/><rect class="cls-43" x="1553.52" y="441.39" width="33.03" height="26.42" transform="translate(-63.47 512.35) rotate(-18.17)"/><circle class="cls-44" cx="1385.16" cy="418.92" r="10.44"/><line class="cls-44" x1="1378.15" y1="412.98" x2="1391.07" y2="424.31"/><line class="cls-44" x1="1390.27" y1="412.18" x2="1378.94" y2="425.11"/><circle class="cls-45" cx="1307.01" cy="378.97" r="13.21"/><path class="cls-46" d="M1308.49,383.48h0a5.82,5.82,0,0,1-7.33-3.71l-11.87-36.14a5.83,5.83,0,0,1,3.71-7.34h0a5.83,5.83,0,0,1,7.34,3.71l11.86,36.15A5.82,5.82,0,0,1,1308.49,383.48Z"/><circle class="cls-45" cx="1344.18" cy="366.76" r="13.21"/><path class="cls-46" d="M1345.66,371.28h0a5.82,5.82,0,0,1-7.33-3.71l-11.87-36.14a5.84,5.84,0,0,1,3.71-7.34h0a5.83,5.83,0,0,1,7.34,3.71L1349.37,364A5.82,5.82,0,0,1,1345.66,371.28Z"/><circle class="cls-45" cx="1379.23" cy="355.26" r="13.21"/><path class="cls-46" d="M1380.71,359.78h0a5.83,5.83,0,0,1-7.34-3.71l-11.86-36.15a5.82,5.82,0,0,1,3.71-7.33h0a5.82,5.82,0,0,1,7.33,3.71l11.87,36.14A5.83,5.83,0,0,1,1380.71,359.78Z"/><circle class="cls-45" cx="1416.4" cy="343.06" r="13.21"/><path class="cls-46" d="M1417.88,347.58h0a5.83,5.83,0,0,1-7.33-3.71l-11.87-36.15a5.83,5.83,0,0,1,3.71-7.34h0a5.83,5.83,0,0,1,7.33,3.71l11.87,36.15A5.83,5.83,0,0,1,1417.88,347.58Z"/><circle class="cls-45" cx="1451.35" cy="331.59" r="13.21"/><path class="cls-46" d="M1452.83,336.1h0a5.82,5.82,0,0,1-7.33-3.71l-11.87-36.14a5.83,5.83,0,0,1,3.71-7.34h0a5.83,5.83,0,0,1,7.34,3.71l11.86,36.15A5.82,5.82,0,0,1,1452.83,336.1Z"/><circle class="cls-45" cx="1488.52" cy="319.38" r="13.21"/><path class="cls-46" d="M1490,323.9h0a5.82,5.82,0,0,1-7.33-3.71L1470.8,284a5.82,5.82,0,0,1,3.71-7.33h0a5.83,5.83,0,0,1,7.34,3.71l11.86,36.15A5.82,5.82,0,0,1,1490,323.9Z"/><circle class="cls-45" cx="1523.57" cy="307.88" r="13.21"/><path class="cls-46" d="M1525.05,312.4h0a5.84,5.84,0,0,1-7.34-3.71l-11.86-36.15a5.83,5.83,0,0,1,3.71-7.34h0a5.84,5.84,0,0,1,7.33,3.71l11.87,36.15A5.83,5.83,0,0,1,1525.05,312.4Z"/></svg>