<svg id="Capa_1" data-name="Capa 1" xmlns="http://www.w3.org/2000/svg" viewBox="0 0 1360 925.81"><defs><style>.cls-1{fill:#f7ce26;}.cls-2{fill:#71a699;}.cls-3{fill:#58867b;}.cls-4{fill:#ede0da;}.cls-5{fill:#d4c2ba;}.cls-6{fill:#fff;}.cls-7{fill:#292929;}.cls-8{fill:#878484;}.cls-9{fill:#736d6d;}.cls-10{fill:#a8634a;}.cls-11{fill:#8c4931;}.cls-12{fill:#de684e;}.cls-13{fill:#fea689;}.cls-14{fill:#473b36;}.cls-15{fill:#485a7e;}.cls-16{fill:#4a4747;}.cls-17{fill:#cc9e87;}.cls-18{fill:#252730;}.cls-19{fill:#b0816a;}.cls-20{fill:#522828;}.cls-21{fill:#bf4c33;}.cls-22{fill:#fad3b1;}.cls-23{fill:#f5a45d;}.cls-24{fill:#324366;}.cls-25{fill:#332723;}.cls-26{fill:#524845;}.cls-27{fill:#595555;}.cls-28{fill:#b5e2d6;}.cls-29{fill:#6b3939;}.cls-30{fill:#e6d6cf;}.cls-31{fill:#cfbab2;}.cls-32{fill:#f2835e;}.cls-33{fill:#ebbd94;}.cls-34{fill:#e0b6d5;}.cls-35{fill:#456664;}.cls-36{fill:#f9f0cd;}.cls-37{opacity:0.1;}</style></defs><path class="cls-1" d="M75,688.9c1.62-83.17,13.29-168.17,36-248.15,29.73-104.7,109.64-181.13,185.57-254.38C330.4,153.69,361.84,109.92,400.89,84c37.2-24.74,81.63-38.78,124.52-49.82C637.82,5.19,756.83-3,872.54.91c137.91,4.63,319.84,3.57,426.16,106.48,57.06,55.23,63.59,139.56,60.75,214.42-3.68,97.12-14.1,193.62-28.25,289.73-3.81,25.83-7.76,51.66-12.36,77.36L1041.55,809.84Z"/><path class="cls-2" d="M158,398.63q-.34-11.85-.7-23.71c-.44-15,.05-30.23-3.43-44.89a118.53,118.53,0,0,1-3.5-23.55c-.25-7-.11-14-1.32-20.87-1.45-8.29-6.76-19-16.77-18-9.77,1-14.44,12.21-15.3,20.69-1.37,13.54,3.29,26.7,6.52,39.64,2,7.92,3.3,15.84,3,24-.32,8-1.6,16.1.2,24,1.54,6.76,5.86,12.88,9.19,19.06a46.62,46.62,0,0,1,5,16.09c.56,4.31-.44,9.45,1.35,13.51,1.5,3.39,5.16,4.47,8.56,3.48,4.31-1.25,6.55-5.07,7.29-9.28C159.19,412.32,158.21,405.2,158,398.63Z"/><path class="cls-2" d="M303.19,147.57c-8.72-4-20.08-.31-27.93,4.13a46.43,46.43,0,0,0-19.57,21.54c-2.39,5.47-3.78,11.3-5.74,16.92a50.75,50.75,0,0,1-10.28,17.43c-7.7,8.66-16.22,16.12-22.23,26.18a84.41,84.41,0,0,0-11.14,31.59c-1.83,13.12.74,26.9-6.77,38.64-6.17,9.63-14.61,17.09-19.58,27.59-8.1,17.11-9.28,36.41-8.35,55.17a77.9,77.9,0,0,0-.87,20.24c.38,4.18.89,12.38,5,14.83,8.39,5,12.23-11.66,13.08-16.7,2-11.63,2.41-23.88,7.4-34.76,2.53-5.52,6-10.52,9.06-15.74A57.65,57.65,0,0,0,212,337.74c1.38-6.23,2.23-12.54,4.13-18.65a85,85,0,0,1,18.72-32.42C242.94,278,252.22,271,257.38,260s7.2-23.08,13.77-33.34c12.3-19.2,36.7-31.34,41-55.38C313.65,162.66,312,151.6,303.19,147.57Z"/><path class="cls-2" d="M340,240.35c-6.62-1.69-13.6.45-19.67,3a82.4,82.4,0,0,0-21.25,13.16c-7.46,6.36-13.06,14.37-19.85,21.38-11.79,12.17-28.53,19-37,34.37-4.93,9-7.71,18.94-12.53,28-4.64,8.72-10.14,16.94-15.42,25.27-7,11-13.73,22.53-17.16,35-1.41,5.14-5,9.46-6.75,14.48-4.91,14.07,13.24,8.33,19.23,3.85,6.35-4.74,11-11.39,15.77-17.64,5.5-7.28,10.83-14.83,17.82-20.79,6.41-5.46,13.88-9.45,21.05-13.78,6.25-3.77,12.51-7.83,17.46-13.27,5.78-6.37,8.32-14.07,10.75-22.15a68.08,68.08,0,0,1,12.09-23.71c5.11-6.36,11.06-12,17-17.55s12-11.24,17.26-17.56c4.4-5.32,9.28-11.53,10.21-18.58A11.84,11.84,0,0,0,340,240.35Z"/><path class="cls-2" d="M343.58,382.3a66.9,66.9,0,0,0-9.83-9.57c-3.68-3.09-4.84-8-8.42-10.88-4.28-3.51-11.22-4-16.48-3.67-14.46.94-25.09,4.57-34.75,15.52-4.1,4.65-8.17,9.15-13.72,12.14-5.22,2.81-11,4.47-16.07,7.57-9.05,5.56-12.48,15.87-17,24.92-9.59,19.2,30.81,2.15,38.1-.85,10.19-4.18,17.62-11.18,26.3-17.65,9.72-7.24,22.05-10.47,32.74-2.93,5.7,4,13.12,14.12,21,8S348.38,388.4,343.58,382.3Z"/><path class="cls-3" d="M146.05,394.57c-1.53-6.52-3.16-13-4.44-19.6a126.73,126.73,0,0,1-1.86-21.2c-.34-12.92-5.07-25.41-4.15-38.38.08-1.11-1.64-1.1-1.72,0-.9,12.73,3.69,24.92,4.12,37.56.21,5.88.21,11.67,1.09,17.51,1,6.64,2.63,13.17,4.16,19.71,6,25.87,15.48,53.52,11.36,80.35-.17,1.08,1.49,1.55,1.66.45C160.22,445.3,151.83,419.34,146.05,394.57Z"/><path class="cls-3" d="M274.94,187.68,255.29,213c-5.74,7.4-12.17,14.69-16.5,23.06-4.18,8.07-4.87,17.19-8,25.63-3.36,9-8.74,17.12-13.41,25.5-9.7,17.4-11.84,37.24-19.88,55.31s-14.22,35.78-17.68,55.16c-3.87,21.68-5.16,43.71-6.41,65.67-.06,1.1,1.66,1.1,1.73,0,2.24-39.61,5.32-79,21.87-115.58A168.93,168.93,0,0,0,206.8,321c2.45-9.26,4.7-18.52,9-27.16,4-8.05,9-15.53,13.06-23.56s5.67-16.2,8.07-24.7c3.12-11.08,10.61-19.79,17.53-28.71l21.72-28C276.83,188,275.62,186.81,274.94,187.68Z"/><path class="cls-3" d="M322.73,261.72c-13.89,11-28.85,21.62-41.23,34.34-11.58,11.9-18.57,27.34-30.24,39.2-5.27,5.35-11,10.39-15.13,16.7-4.52,6.83-6.75,14.87-10.57,22.08-7.24,13.68-17.66,25.27-26.13,38.15a94.15,94.15,0,0,0-11.29,22.75c-3.07,9.44-4.76,19.26-8.44,28.51-.41,1,1.26,1.48,1.67.46,3.19-8,4.91-16.48,7.29-24.77a90.48,90.48,0,0,1,10-22.61c7.86-12.76,17.94-24,25.64-36.83,4.17-6.95,6.78-14.46,10.34-21.69s9.1-12.92,14.81-18.56a123,123,0,0,0,14.68-17.23c4.92-7.07,9.39-14.48,15-21.05,6-7,13.21-12.76,20.3-18.56q12.17-9.93,24.48-19.67C324.81,262.25,323.59,261,322.73,261.72Z"/><path class="cls-3" d="M324.82,384.48c-12.13-7.32-24.05-4.14-35.76,2.1-6.56,3.5-13.06,5.65-20.11,7.88-6.06,1.92-10.63,5.53-15,10a140.57,140.57,0,0,1-17.16,15.36c-5.4,4-11,7.65-16.29,11.76-10.15,7.85-19.34,17.7-22.11,30.6-.23,1.08,1.43,1.55,1.67.46,5.64-26.33,35.33-36.36,52.32-54,4.62-4.81,9.16-9.69,15.61-12,5.69-2.05,11.45-3.16,16.91-5.88,5.83-2.89,11.4-6.57,17.78-8.17A27.8,27.8,0,0,1,324,386,.86.86,0,0,0,324.82,384.48Z"/><path class="cls-4" d="M1318.85,688.91c-8.66,14.46-18.06,28.91-28.32,42.86-.39.58-.82,1.15-1.26,1.72-18.76,25.35-40.32,48.92-65.19,67.62-.75.58-1.53,1.15-2.3,1.72a216.12,216.12,0,0,1-38,22.52c-19.75,9.09-41.31,13-62.32,18.25q-41.3,10.39-82.61,20.8l-2.34.59-34.07,8.58c-2.28.57-4.57,1.16-6.84,1.72L972.82,881c-56.63,14.25-109.72,32.07-168,37.28-.71.07-1.42.12-2.12.17s-1.3.12-1.95.17c-59.43,4.71-119.13,3.43-178.68,4.89l-22.75.54-2,0q-76.66,1.64-153.35,1.69-23.79,0-47.62-.17h-2C329.41,925,264.41,922.84,200,916c-.64-.05-1.28-.12-1.9-.19A1121.07,1121.07,0,0,1,83.15,897.7c-16.81-3.59-33.81-7.76-48.56-16.58a62.33,62.33,0,0,1-8.22-5.83c-.68-.55-1.35-1.12-2-1.72-.5-.43-1-.88-1.49-1.36S22,871.4,21.61,871A74.07,74.07,0,0,1,0,819.24c0-4.45,1.34-10,3.7-16.41.19-.57.42-1.14.66-1.72C11.87,781.64,28,755.6,42.93,733.49c.39-.59.79-1.16,1.18-1.72C60.38,707.81,75,688.91,75,688.91Z"/><path class="cls-5" d="M510.51,733.49h200l-40.19,67.62H470.31Zm-202.07,0H508.49l-40.18,67.62H268.24ZM65.16,801.11l40.18-67.62H306.43l-40.19,67.62Zm360.07,72.46H225.16l42.06-70.74h200Zm202.06,0H427.23l42.06-70.74H669.34Zm202.07,0H629.29l42.07-70.74h200Zm43.08-72.46H672.37l40.21-67.62h200Zm202.07,0H874.44l40.2-67.62h200.05Zm214.76-67.62c.44-.57.87-1.14,1.26-1.72h-172.8l25.5-42.86h-2l-25.48,42.86H915.66l25.48-42.86h-2l-25.49,42.86H713.59l25.21-42.43-.72-.43-.74-.45-.26.45-25.49,42.86H511.53l25.21-42.43-.73-.43-.74-.45-.26.45-25.48,42.86H309.46l25.21-42.43-.72-.43-.76-.45-.26.45-25.47,42.86H106.38l25.21-42.43-.73-.43-.76-.45-.25.45-25.49,42.86H44.11c-.39.56-.79,1.13-1.18,1.72h60.41l-40.2,67.62H4.36c-.24.58-.47,1.15-.66,1.72H62.12L21.61,871c.41.41.84.82,1.27,1.22l41.24-69.38H265.21l-42,70.74H24.37c.65.6,1.32,1.17,2,1.72H222.13l-24.08,40.5c.62.07,1.26.14,1.9.19l24.19-40.69H424.21l-29.92,50.34h2l29.92-50.34H626.28l-29,48.82,2,0,29-48.79H828.34l-25.67,43.19c.7-.05,1.41-.1,2.12-.17l25.55-43H995.62c2.27-.56,4.56-1.15,6.84-1.72H831.36l42.06-70.74h200.07l-37,62.16,2.34-.59,36.62-61.57h146.29c.77-.57,1.55-1.14,2.3-1.72H1076.51l40.2-67.62Z"/><path class="cls-6" d="M124.9,437.39l-8,117.49a1.82,1.82,0,0,0,1.8,2l109.25,1.38a1.83,1.83,0,0,0,1.83-1.59l15.8-118.31a1.83,1.83,0,0,0-1.8-2.07l-117-.55A1.81,1.81,0,0,0,124.9,437.39Z"/><path class="cls-5" d="M235.83,511.37H120a1.83,1.83,0,0,1,0-3.66H235.83a1.83,1.83,0,0,1,0,3.66Z"/><path class="cls-5" d="M90,717.22a1.65,1.65,0,0,1-.44-.05A1.82,1.82,0,0,1,88.2,715l50.26-205.85A1.83,1.83,0,1,1,142,510L91.75,715.83A1.82,1.82,0,0,1,90,717.22Z"/><path class="cls-5" d="M230.85,715.31A1.83,1.83,0,0,1,229,713.6l-12.78-204a1.82,1.82,0,0,1,1.7-1.93,1.84,1.84,0,0,1,1.94,1.7l12.78,204A1.82,1.82,0,0,1,231,715.3Z"/><path class="cls-7" d="M1323.89,382.58H397a1.83,1.83,0,0,1-1.83-1.87l8.53-345.28a1.82,1.82,0,0,1,1.82-1.78h926.9a1.83,1.83,0,0,1,1.83,1.87l-8.53,345.28A1.82,1.82,0,0,1,1323.89,382.58Z"/><path class="cls-8" d="M1323,45.3l-1.35,53-7,272.75a1.81,1.81,0,0,1-1.81,1.78H407.56a1.81,1.81,0,0,1-1.83-1.81l2.43-95.39,5.9-230.44a1.81,1.81,0,0,1,1.81-1.77h905.26A1.81,1.81,0,0,1,1323,45.3Z"/><path class="cls-9" d="M1239,138.31c-15.58,12-27.43,27-38.94,42.81-11.92,16.33-24.25,32.78-42.17,42.94-17.67,10-37.87,14.22-56,23.25s-30.2,23.68-41.27,40.32c-11.58,17.39-23.6,33.57-40,46.66a155.47,155.47,0,0,1-54.79,28.07c-21.66,6.05-45.36,6.85-68,10.47h415.15a1.81,1.81,0,0,0,1.81-1.78l7-272.75C1292.32,107.85,1263.44,119.41,1239,138.31Z"/><path class="cls-9" d="M488.41,364.46c-7.42-1.9-14.85-3.69-22.21-5.75-6.56-1.85-13.33-4.13-18.65-8.55-11.25-9.37-10.13-25.24-14.77-37.93-5.17-14.12-15.12-25.2-24.62-36.6L405.73,371a1.81,1.81,0,0,0,1.83,1.81H520.88Q504.64,368.63,488.41,364.46Z"/><path class="cls-6" d="M1016.24,257.14c-1.47-5.43-7.22-7.07-12.38-5.85-8,1.89-13.67,9.71-16.53,16.93-4.75,12-7.47,39.79,6.9,46.86,12.8,6.29,23.74-12.35,19.76-23.29-4.23-11.65-19.79-13.55-26.15-4.65,0-6.67.9-13.4,3.71-19.42,4.37-9.37,13.63-17,23.41-9.59C1015.59,258.62,1016.43,257.82,1016.24,257.14Zm-13.06,29c7.55,2.87,9,11.62,5.78,18.42-3,6.35-9.84,11.28-16.08,5.06-3.89-3.87-4.34-10-4.74-15.09l0-.52C990.86,287.62,994.69,282.86,1003.18,286.1Z"/><path class="cls-6" d="M507.66,104.9c-.39-5.9,1.9-21.9-7.44-22.33C490,82.1,485.71,98,482.67,104.79c-7.16,16.14-14.66,32.41-19,49.59a1,1,0,0,0,1.89.79c5.67-10.14,10.1-20.8,14.69-31.45,3.84.55,7.66.07,11.56-.31,3.67-.37,7.74-.12,11.45-.76.14,10.79-1.35,22.44.65,33,.34,1.8,3.05,1.65,3.49,0C511.54,140.12,508.73,120.8,507.66,104.9Zm-16.18,12.92a55.12,55.12,0,0,0-9.44,1.85c2-4.67,4-9.34,6.12-14,1.3-2.92,3.67-12.19,6.57-13.85,1.64-.95,2.44-3.48,4.77-2,2.12,1.32,2.58,4.13,2.8,6.39.67,6.89.69,13.88.87,20.8C499.36,116.44,495.13,117.32,491.48,117.82Z"/><path class="cls-6" d="M611.56,122.56a16.55,16.55,0,0,0-7.29-3.37,42.62,42.62,0,0,0-4.36-.57c-1-.1-3.6-.89-4.46-.53,9.5-4,23.26-10.7,22.31-20.47-1.07-11.19-28.22-10.72-28.45-9.07-1.48,10.28-2.51,20.61-3.49,30.94-.5,5.21-1,10.42-1.51,15.63-.25,2.51-.37,5-.65,7.53-.24,2.08-1.17,4.35-1.18,6.41,0,4.68,13.09,2.16,15.85,1.72,5.76-.93,12-2.59,16.49-6.53a13.18,13.18,0,0,0,4.45-7.7c1-5.73-3.29-10.17-7.24-13.6Zm-8.67-30.92c3.94.34,7.67,1.64,8.55,5.92S610,106.15,605,108.17a71.28,71.28,0,0,1-14,7.38c.59-4.09,1.42-8.15,1.94-12.25a35.84,35.84,0,0,0,.23-9,3.7,3.7,0,0,1,0-1.59c.38-1.17,2.05-1,3-1A54.68,54.68,0,0,1,602.89,91.64Zm-15.53,54.89c3.17-8.09,2.48-16.94,3-25.59,6.79,2.52,14.58.88,19.89,7.1C622.54,142.4,598.2,146.27,587.36,146.53Z"/><path class="cls-6" d="M718.55,138.87c-4.53,5.77-13.37,11.13-20.39,6-4.82-3.5-4.28-11.39-4.21-16.56.07-6.23.77-12.54,3.66-18.17,2.76-5.38,13.61-18.13,21-8.49,1,1.28,3.81,1.16,3.55-1-1.14-9.46-11.27-9.46-18.33-5.77C693,100.59,688.64,113.38,688,124.81c-.64,10.67-1.16,22.62,10.46,26.78,9.86,3.54,20.61-.2,23.68-10.65C722.66,139,719.9,137.15,718.55,138.87Z"/><path class="cls-6" d="M801.34,95.87c-1.87.18-3.93.47-4.86,1.74-1.45,2-2,4.64-2.47,7-1.07,5.23-1.23,10.54-1.79,15.83,0,.33-.07.66-.12,1-.79,5-1.53,10-2.45,14.92-.5,2.66-1.06,5.31-1.57,8-.41,2.19-1.48,5.22-1.08,7.42-.36,1.44,2.78,3,3.9,3.37,14.45,5.19,32-5,39.86-16.91a28,28,0,0,0,4.41-10.68c2.4-14.1-8.16-28.6-22.28-31.15-3.07-.55-6.34-1.19-9.4-.69C802.88,95.74,802.13,95.79,801.34,95.87Zm26.58,35.74c-2.8,6.11-8.1,12.3-14,15.38-2.86,1.48-17.86,6.27-21.56,3.2,2.33-6.25,2.84-14.46,3.7-19.91,1.39-8.84,4.67-19,4.87-28.21,7.39-.34,14.15.05,20.29,5.05C828.44,113,832,122.8,827.92,131.61Z"/><path class="cls-6" d="M927.86,97.37c-1.8-4.11-7.59-2.8-11.29-2.75-3.86,0-7.72,0-11.59.16a31.07,31.07,0,0,0-4.82.23c-7.09,1.32-6.89,13-7.39,18.37a298.25,298.25,0,0,1-5.07,33c-3.22,15.89,17.34,13.31,29.17,13.35,2.59,0,2.78-3.39.58-4.22-5.06-1.9-21.3,1-24.93-3.09-1.65-1.85,4.1-17.58,4.57-20.59.15-1,.25-1.92.36-2.88,2,1.27,4.25,1.33,6.65,1.39,3.59.1,7.49.51,11-.24,2.48-.52,2.47-4.41,0-4.94-5.51-1.18-11.39.22-17,0a1.86,1.86,0,0,0-.34,0c.24-3.32.37-6.64.58-9.95.32-5.19,1.74-10.32,2.12-15.47,3.5,1.38,8.44.82,11.85.88,4.37.08,10,1.14,14.2,0A2.19,2.19,0,0,0,927.86,97.37Z"/><path class="cls-6" d="M506.71,307.9c-2.14-2-4.59-1.32-7.35-1.11l-1.9.15c2.63-20.53,3.56-40.95,4-61.65,0-2.59-3.67-3-4.41-.6-2.41,7.65-9.13,13.51-13.29,20.21-1.26,2,1.65,4.28,3.32,2.56a84.06,84.06,0,0,0,9.82-11.56c-.32,17.16-1.83,34.38-3.76,51.41-1.41.13-2.83.26-4.24.45-3,.38-3.18,4.94,0,4.81,3.49-.14,7-.43,10.45-.63,2.68-.16,5.49.27,7.35-1.89A1.55,1.55,0,0,0,506.71,307.9Z"/><path class="cls-6" d="M610.06,307.92c-13.83-.38-27.69.18-41.53.42,4.83-11.21,15.79-19.32,21.53-30.23,4.11-7.82,8.49-19.23,4.45-27.93a13.31,13.31,0,0,0-10.7-7.26,9,9,0,0,0-8.41,3.89,7.36,7.36,0,0,0-1,4.58c.13,1.23.79,4.31,2.39,4.43a1.68,1.68,0,0,0,1.51-1.23c.69-1.81.26-4,1.7-5.45,1.29-1.3,3.93-1.5,5.73-.73,2.81,1.2,4.82,5.69,4.91,8.57a25,25,0,0,1-.82,7.17,43.22,43.22,0,0,1-2.35,7.28,66.08,66.08,0,0,1-9.54,16c-5.75,7.35-12,13.44-14.67,22.63a2.21,2.21,0,0,0,2.12,2.77c14.89-.19,29.84.1,44.72-.71A2.08,2.08,0,0,0,610.06,307.92Z"/><path class="cls-6" d="M687.81,278.09c7-5.35,13.45-12.26,12.44-21.63-1.23-11.49-14.88-12-24-9.68-1.31.33-1.45,2.55,0,2.8a57,57,0,0,0,6.9.69c2.19.09,4.66-.29,6.75.35,3.43,1,5.28,4.13,5.44,7.6.25,5.76-2,8.42-6.75,13.09a62.23,62.23,0,0,1-8.77,6.62c-1.75,1.18-1.34,4.68,1.2,4.42,11.56-1.21,20.29,10.37,14.52,21.16-4.92,9.19-18.84,11.84-25.88,3.66-1.71-2-5.25.67-3.68,2.83,8.71,12,28.16,6.92,33.89-5.6C705.2,292.88,698.84,280.79,687.81,278.09Z"/><path class="cls-6" d="M807.08,251.1c-.49,1.86-.86,4.48-1.29,7.23-.56,2.9-3.53,14.44-4.18,17.32-.35,1.07-.63,2.17-.93,3.26-.45,1.64-.12,3.56-2,3.6a22.52,22.52,0,0,1-4.49-.86c-1-.2-11.67-2.46-11.56-3,2.14-10.53,5.54-20.79,7.37-31.33.36-2.1-3.06-3.94-3.7-1.56-3,11.19-7.53,22.53-9.63,34a2.9,2.9,0,0,0,2,3.48c3.39,1.07,13.87,5.34,20,4.93-2.27,9.13-4.64,18.25-6.5,27.5-.47,2.33,3.62,2.9,4.46.74,6.86-17.64,11.88-45.93,14.8-64.53C811.74,249.63,807.66,248.87,807.08,251.1Z"/><path class="cls-6" d="M1027.75,95.69c-8.89-1.88-17.54-1-26.48-1.55-5.5-.35-6.88,25.54-7.35,29.28-.92,7.33-1.84,14.67-2.54,22-.34,3.64-.87,7.38-.86,11,0,1.08-.59,2.88.71,3.45,5.48,2.44,7.25-27.06,7.58-30.3.11-1.06.26-2.15.41-3.24,2,.89,4.69.4,7,.45q7.89.14,15.78.18c3.24,0,3.24-5,0-5q-7.89-.06-15.78,0c-2.07,0-4.4-.41-6.32.11,1.44-8.16,3.45-16.68,3.1-24.6,2.4,1.28,5.14.69,8,.83,5.22.24,10.35.94,15.52,1.64C1029.29,100.29,1030.58,96.29,1027.75,95.69Z"/><path class="cls-6" d="M1117.91,137.67c0-2.6-4.32-3.36-4.69-.63l-.09.64c-.63,4.65-3.87,7.53-7.55,10.32-3.89,2.95-8.35,4.2-13.14,2.89-10.27-2.82-10.84-14.45-8.85-23.17,1.5-6.55,4.64-13.33,9.74-17.89a17.32,17.32,0,0,1,11.63-4.65,36.22,36.22,0,0,1,6.39.7c2.1.37,6.69,1.76,4.66-1.91-1.89-3.45-7.46-4.44-11-4.31a23.9,23.9,0,0,0-13,4.6c-9.11,6.69-13.92,18.81-14.47,29.81-.53,10.54,4.61,20.37,15.78,22,6.2.91,14-1.43,18.36-6.38a9.2,9.2,0,0,0,.71,5.49,1.81,1.81,0,0,0,3.09,0c1.61-2.23,1.23-5.28,1.46-7.95s.51-5.35.79-8A8.54,8.54,0,0,0,1117.91,137.67Z"/><path class="cls-6" d="M918.66,251.67c-4.56-.79-9.43-.48-14.06-.48-3.44,0-13.64-.71-13.82.59-2.72,7.46-3.74,16.7-5.68,24.39a2,2,0,0,0,3.27,1.9c10.57-8.93,14.78,10.66,14.71,16.32-.07,5.35-.73,10.3-5.43,14.14-3.4,2.78-15.43,6.66-16.52-1.69-.33-2.59-4.33-2.77-4.2,0,.32,6.57,5.86,10.13,12.24,9.38,9.5-1.13,16.3-7.36,17.67-16.69,1.08-7.38.07-18.47-5.91-23.85A11.4,11.4,0,0,0,890,273c.83-3.18,1.66-6.36,2.41-9.56.67-2.9.42-5.94,1.72-8.68a.5.5,0,0,1,.27-.3.51.51,0,0,1,.32,0,14.78,14.78,0,0,0,4.3,1c1.87.09,3.74-.13,5.62-.08,4.64.11,9.47.54,14.06-.14C920.44,255,920.4,252,918.66,251.67Z"/><path class="cls-10" d="M523.91,460.57c-.53.91.81,1.89,1.41,1l3.9-5.93c-.76,1.4-1.53,2.79-2.29,4.18a.9.9,0,0,0-.51.93l-.89,1.62c-.53,1,.85,2,1.39,1,.28-.5.55-1,.82-1.51,4.55,2.93,12.28,7.54,12.28,7.54s4.27-9.45,6.17-12.95c.94-1.72,4.89-8.65,4.89-8.65a5.44,5.44,0,0,1-3.31-.81c-2.9-2.44-5.85-4.81-8.84-7.15,0,0-11.51,13.38-15.95,19.41A.87.87,0,0,0,523.91,460.57Z"/><path class="cls-10" d="M537.05,435.17c.28,2.08,1.64,3.83,1.25,6.05a.67.67,0,0,0,.86.75.69.69,0,0,0,.21.31c2.42,2.1,5.77,5.53,9,6.19,2.19.45,3.48-1,4.88-2.5a68.3,68.3,0,0,0,7-8.78c1.18-1.74,3.53-5,3.81-7.11a1.48,1.48,0,0,0-2.15-1.33c-.45.18-.87.39-1.29.6a25,25,0,0,0,2.46-6.89c.12-.91-.1-1.29-.87-2.08s-2.53,0-3.37-.62c-.67-.51-.06-1.65-1.47-2.1a2.82,2.82,0,0,0-2.34.53,10.83,10.83,0,0,0-2.19,1.9c.46-2.8.19-5.09-1.93-5-2.33.06-3.76,4.31-4.65,5.89s-2,3.28-2.92,5c0-1.93-.16-3.81-1-4.68a2,2,0,0,0-3.11.33c-.65.79-.57,1.88-.71,2.84-.28,2-.77,3.92-1.18,5.89A14.3,14.3,0,0,0,537.05,435.17Z"/><path class="cls-11" d="M549.53,426.38a.85.85,0,0,1-.4-.1.92.92,0,0,1-.42-1.22l2.45-5a.91.91,0,1,1,1.64.81l-2.45,5A.92.92,0,0,1,549.53,426.38Z"/><path class="cls-11" d="M553.74,429.89a.86.86,0,0,1-.48-.14.91.91,0,0,1-.29-1.26l4.85-7.77a.91.91,0,0,1,1.26-.29.9.9,0,0,1,.29,1.25l-4.85,7.78A.92.92,0,0,1,553.74,429.89Z"/><path class="cls-11" d="M557.89,433.1a.88.88,0,0,1-.59-.22.92.92,0,0,1-.1-1.29l2.2-2.54a.91.91,0,0,1,1.38,1.2l-2.2,2.54A.89.89,0,0,1,557.89,433.1Z"/><path class="cls-12" d="M549.73,456.25S539.39,478.17,537.1,488s-7.94,4.72-12.87,15c-4.31,9-11.6,16.92-19.37,22.5l-1.55,1.07c-.66.45-1.31.86-2,1.27a31.72,31.72,0,0,0-5.22,4.36c-.48.45-1,1-1.44,1.49-8.09,8.58-16.67,21.86-16.67,21.86l-42.1-59.57s15.44-4.75,31.49-10.22l1.65-.55c1.22-.43,2.46-.84,3.69-1.27.55-.19,1.1-.38,1.64-.59,11.95-4.17,23-8.44,27-11.06,9.91-6.64,30.73-29.66,30.73-29.66Z"/><path class="cls-12" d="M364.85,566.33H336.28a17.08,17.08,0,0,1,2.58-9.48c2-3.48,9-14.13,13.3-20.71l.95-1.47c1.59-2.39,2.62-4,2.62-4l2.33,9.06.84,3.35Z"/><path class="cls-13" d="M486.49,656.34c8.27,27.77,14.35,55.33,23.59,82.78a.87.87,0,0,0,.86.59c3.8-.18,16.53-3.56,16.53-3.56s-1.52-14-2-17.73q-1.38-10.62-2.77-21.24T519.92,676c-.42-3.18-4.34-17.53-2.59-19.82a.93.93,0,0,0-.16-1.22c-.13-1-.27-2.1-.41-3.15s-1.86-1-1.72.09c.12.93.25,1.87.37,2.81-8.82-.23-19.34,0-28.15.55A.87.87,0,0,0,486.49,656.34Z"/><path class="cls-14" d="M540.14,745c.72-2.38.11-5.22-1.94-7.88-1.85-2.38-4.9-2.31-7.09-4.21-1.67-1.45-3.08-3.21-5.07-4.25a15.76,15.76,0,0,0-10-1.71c-3.06.58-6.19,2.31-7.42,5.32-1.53,3.79.55,8,1.3,11.75.9,4.4.32,8.1,5.32,8.28a71,71,0,0,0,18.65-2.08C537.26,749.41,539.4,747.44,540.14,745Z"/><path class="cls-13" d="M428.75,656.42c-3.31,28.79-8.55,56.51-10.84,85.39a.88.88,0,0,0,.57.88c3.55,1.33,16.59,3.22,16.59,3.22s4.1-13.46,5.12-17.1q2.9-10.3,5.8-20.61l5.79-20.62c.87-3.08,2.9-17.82,5.41-19.24a.92.92,0,0,0,.33-1.18c.29-1,.58-2,.86-3.06s-1.31-1.67-1.61-.6c-.26.91-.51,1.82-.77,2.74-8-3.68-17.79-7.6-26.1-10.56A.87.87,0,0,0,428.75,656.42Z"/><path class="cls-14" d="M443.25,759c1.6-1.91,2.15-4.76,1.31-8-.76-2.92-3.6-4-4.86-6.65-1-2-1.57-4.17-3-5.91a15.75,15.75,0,0,0-8.56-5.52c-3.05-.67-6.61-.31-8.92,2-2.9,2.88-2.65,7.6-3.42,11.32-.91,4.39-2.89,7.56,1.64,9.7a70.87,70.87,0,0,0,18,5.41C438.87,762,441.61,761,443.25,759Z"/><path class="cls-15" d="M413.94,664.4a80.16,80.16,0,0,1,3.53,32c-.21,2.17-6.91,29.3-5,29.55,3.64.49,37,6.83,38,2.74,4.66-19.41,13.74-65,14-71.07.46-11.2-19.38-34.46-20.68-34.46s-73.38,3-73.38,3c1.44,1.3-2.44,29.3,5.32,34S413.94,664.4,413.94,664.4Z"/><path class="cls-15" d="M467.74,666.37c8.25-3.09,31.59,59.46,31.59,59.46l32.74-6.12s-14.53-75.58-18.67-80.44c-6.6-7.75-34.46-20.39-34.46-20.39l-51,5.74s-1.81,23.84,2.5,36.77S465.36,667.26,467.74,666.37Z"/><path class="cls-16" d="M639.69,763.36a2.74,2.74,0,0,1-2.74-2.74V580.11a2.74,2.74,0,1,1,5.48,0V760.62A2.74,2.74,0,0,1,639.69,763.36Z"/><path class="cls-16" d="M322.78,763.36a2.74,2.74,0,0,1-2.74-2.74V580.11a2.74,2.74,0,0,1,5.48,0V760.62A2.74,2.74,0,0,1,322.78,763.36Z"/><path class="cls-17" d="M323.11,566.32H639.36a3,3,0,0,1,3,3v13.37a0,0,0,0,1,0,0H320.11a0,0,0,0,1,0,0V569.32A3,3,0,0,1,323.11,566.32Z"/><path class="cls-10" d="M462.54,443.86c-.16-1.07-.35-2.12-.54-3.19a90.32,90.32,0,0,0-3.55-13.61C453.51,412.75,436,410.31,423,412.77c-17.16,3.22-26,15.87-29.29,31.54-1.83,8.65,3.88,16.37,6.65,24.53,3.69,10.93,5.43,10.55,19.75,16.86,8.18,3.58,24.71,7.37,33.19,3.72,4.24-1.83,6.46-4.89,8.3-12,.28-1,.52-2.05.73-3.16,0-.14,0-.27.08-.41.19-1,.37-2.05.5-3.12A94.09,94.09,0,0,0,462.54,443.86Z"/><polygon class="cls-10" points="441.41 489.09 438.85 507.47 421.37 522.66 403.51 504.58 405.8 476.38 441.41 489.09"/><path class="cls-12" d="M484.92,627.55c-2.82-18.57.23-30.53-2-45.06-2.79-18.38-3.15-36.51-7.27-54.66-1.65-7.25-6.68-15-11.35-21-3.73-4.77-8.52-6.94-14-8.29a.64.64,0,0,0-.09-.44c-1.69-3.55-5-5.17-8.82-5.52-5.83-.53-11.72.6-17.61.05-6.84-.65-13.48-2.63-20.34-3.29a6.4,6.4,0,0,0-2.31.09c-2.39.72-5.51,4.1-7.85,5.44-3.64,2.07-7.4,3.91-11.19,5.67-4.94,2.29-10,4.9-13.3,9.39-3.59,4.93-3.86,11-3.74,16.91a96.84,96.84,0,0,1,.05,10.08c-.29,4.08-1.52,8-2.2,12-2.59,15.2,3.65,30.19,2.06,45.42-.84,8-3.34,15.72-4.7,23.65-.66,3.79-2.72,10.44,1.05,13.16,1.9,1.38,4.72,1.57,6.94,1.88a79.87,79.87,0,0,0,12,.74c7.83,0,15.62-1,23.39-1.67,16.2-1.43,32.24-.14,48.42.79,7.89.47,15.84,1.24,23.75,1.36C480.68,634.38,485.68,632.59,484.92,627.55Z"/><path class="cls-12" d="M370.38,566.33H350.84s-5.45-2.88-5.74-12.93c-.23-7.94,4.55-9.61,8.13-16.16.28-.52.54-1,.79-1.62a27.18,27.18,0,0,0,1.71-4.91c.24-.93.5-1.85.81-2.72.21-.61.43-1.21.66-1.78a44.5,44.5,0,0,1,11.63-16.27l.82,30.25.07,2.37.26,9.57.07,2.53Z"/><path class="cls-6" d="M389.56,563.81a237.52,237.52,0,0,0-19.84-21.25c-.88-.82-1.75-1.62-2.65-2.39a42.18,42.18,0,0,1-5.58-5.52c-1.37-1.75-2.31-3.79-3.79-5.46-.38-.41-.76-.81-1.16-1.2.21-.61.43-1.21.66-1.78q1.11,1.06,2.1,2.22c3.07,3.62,5.32,7.33,9,10.52a17.5,17.5,0,0,1,1.36,1.24c7.67,6.84,14.45,14.54,21.13,22.4C391.5,563.43,390.28,564.66,389.56,563.81Z"/><path class="cls-6" d="M379.29,564.23l-9.24-9.57L358.9,543.12l-5.67-5.88-1.07-1.1.95-1.47c.33.31.62.62.91,1,1.37,1.38,2.69,2.76,4,4.15Q364,546,370,552.13q5.28,5.43,10.53,10.89C381.29,563.81,380.06,565,379.29,564.23Z"/><path class="cls-18" d="M461.38,451.1c-.15-1.18-.58-2.35-1.76-2.44a1.55,1.55,0,0,0-.22,0c-2.7.25-2.15,4.94-.63,6.08l.11.08a1,1,0,0,0,.84.19c1.24-.26,1.7-1,1.73-2.3A11.7,11.7,0,0,0,461.38,451.1Z"/><path class="cls-10" d="M462.63,452.68s5.9,7.87,6,9.9-6.46,4.12-6.46,4.12Z"/><path class="cls-6" d="M462.93,470.74c-.13,1.07-.31,2.1-.5,3.12,0,.14-.05.27-.08.41a7.1,7.1,0,0,1-5.48-4.87S461.05,470.46,462.93,470.74Z"/><path class="cls-7" d="M462.54,443.86a4.17,4.17,0,0,1-1.24.33c-2.19.18-4.43.22-6.64.32-1.36.05-1.62-1-1.07-1.7a6.81,6.81,0,0,1,2.69-1.42,11.33,11.33,0,0,1,5.72-.72C462.19,441.74,462.38,442.79,462.54,443.86Z"/><path class="cls-16" d="M501.34,763.36a2.74,2.74,0,0,1-2.68-2.18L479.41,669a2.74,2.74,0,0,1,5.37-1.12L504,760.06a2.75,2.75,0,0,1-2.68,3.3Z"/><path class="cls-16" d="M402,763.36a2.74,2.74,0,0,1-2.68-2.18L380.1,669a2.74,2.74,0,0,1,5.37-1.12l19.24,92.2a2.75,2.75,0,0,1-2.68,3.3Z"/><path class="cls-17" d="M362.75,656.22H487.14a3,3,0,0,1,3,3v13.37a0,0,0,0,1,0,0H359.75a0,0,0,0,1,0,0V659.22A3,3,0,0,1,362.75,656.22Z"/><rect class="cls-17" x="359.75" y="537.89" width="115.46" height="77.83" rx="3"/><path class="cls-16" d="M367.5,765.08a2.74,2.74,0,0,1-2.74-2.74V574.51a2.74,2.74,0,0,1,5.48,0V762.34A2.74,2.74,0,0,1,367.5,765.08Z"/><path class="cls-16" d="M467.74,765.08a2.74,2.74,0,0,1-2.74-2.74V574.51a2.74,2.74,0,0,1,5.48,0V762.34A2.74,2.74,0,0,1,467.74,765.08Z"/><path class="cls-19" d="M359.75,581a.92.92,0,0,1-.92-.91V569a.92.92,0,0,1,1.83,0v11.12A.91.91,0,0,1,359.75,581Z"/><path class="cls-11" d="M439.58,491.52a.88.88,0,0,1-.49-.15L435.42,489a.91.91,0,1,1,1-1.53l3.66,2.37a.92.92,0,0,1,.27,1.26A.93.93,0,0,1,439.58,491.52Z"/><path class="cls-15" d="M673.29,694.32c-10,0-20.3-.07-30.31,0-11.2,0-22.39.31-33.59.21-24.62-.22-27.77-2.76-29.88,11.94-1.89,13.27-3,25.35-5,38.6-1.64,10.47-2.89,14,1.31,15.41,6,2.06,94.35,1.1,97.9.9,5.59-.31,5.3-2.54,7-11.88,1.57-8.87,2.69-17.81,4-26.72.64-4.31,1.63-8.57,2.31-12.88.54-3.37,1.15-6.81.73-10.23-.19-1.5-.25-2.92-1.63-3.62C682.38,694.17,677.24,694.32,673.29,694.32Z"/><path class="cls-6" d="M597.52,737.92a.8.8,0,0,0-.78-.78l-6.92-.64a.61.61,0,0,0-.42.1.77.77,0,0,0-1.13.67v5c0,.83-.22,2,.54,2.54s2.39.48,3.32.54a41.3,41.3,0,0,0,4.85,0,.79.79,0,0,0,.78-.77A62,62,0,0,0,597.52,737.92Z"/><path class="cls-6" d="M675.14,737.92a.81.81,0,0,0-.78-.78l-6.93-.64a.63.63,0,0,0-.42.1.77.77,0,0,0-1.13.67v5c0,.83-.21,2,.55,2.54s2.38.48,3.32.54a41.3,41.3,0,0,0,4.85,0,.78.78,0,0,0,.77-.77A62,62,0,0,0,675.14,737.92Z"/><path class="cls-20" d="M585.41,738.7c-.49-6.22-2.92-37.32-2.92-37.91h1.83c0,.77,1.91,25.05,2.91,37.78Z"/><path class="cls-21" d="M663,741.89h0l-62.68-.48a.91.91,0,0,1,0-1.82h0l62.67.47a.92.92,0,0,1,0,1.83Z"/><path class="cls-21" d="M676.93,735.67a1,1,0,0,1-.3,0,.93.93,0,0,1-.56-1.17l6.21-17.85a.92.92,0,0,1,1.73.6l-6.21,17.85A.92.92,0,0,1,676.93,735.67Z"/><circle class="cls-22" cx="672.58" cy="706.56" r="5.77"/><circle class="cls-23" cx="657.93" cy="711.13" r="3.61"/><path class="cls-7" d="M462.53,411.66a6.58,6.58,0,0,0-6.56-2.49c-.8-3.87-2.55-7.79-6.05-9.17a12.63,12.63,0,0,0-7.6,0c-3.49.93-6,3.82-9.73,3.78-3.22,0-6.52-1.2-9.8-1.3a26.89,26.89,0,0,0-10.66,1.71c-5.39,2.13-10.92,3.65-14.9,7.76-4.19,4.32-7.65,11.28-10,16.91-2.65,6.28-2.58,13.4-1.74,20.05,1.64,12.86,10.76,18.72,18.52,32.27.08.14.27.12.4.13a.76.76,0,0,0,.33.19c3.52,1.18,6.7.29,10.24-.36,2.46-.46,4.56,0,6.95-.05a3.86,3.86,0,0,0,2.39-.49c1.34-.81,2.27-2.87,3.2-4.1l5.09-6.72c1.86-2.45,6.16-6.66,5.2-10.19-.29-1.07-1-1.44-1.57-2.26-1.81-2.61-2-5,.29-7.36.52-.54,1.57-1.26,2.08-1.87a86.63,86.63,0,0,0,5.06-7.33c1.39-2,3.74-2.75,5.62-4.16a48.87,48.87,0,0,0,3.73-3.75c2.61-2.46,5.66-3.37,7.71-6.68C463.13,422.22,465.56,415.84,462.53,411.66Z"/><path class="cls-6" d="M496.12,532.29c-.48.45-1,1-1.44,1.49a15.68,15.68,0,0,0-1-2.69c-2.83-5.74-7.6-10.2-11.29-15.36-3.94-5.53-5.18-11.52-7.36-17.8-1.51-4.36-3.89-7.42-6.75-10.92-.31-.38-.62-.78-.91-1.16l1.65-.55c2.29,3.12,5.15,5.93,6.69,9.53,2.51,5.93,3.27,12.37,6.75,17.92,2.95,4.71,6.95,8.64,10.12,13.19A31.25,31.25,0,0,1,496.12,532.29Z"/><path class="cls-6" d="M504.86,525.59l-1.55,1.07a139.92,139.92,0,0,0-12.77-17.49c-6.88-7.72-14.18-15.41-17.8-25.14.55-.19,1.1-.38,1.64-.59,4,10.74,12.58,18.87,20,27.45A122.41,122.41,0,0,1,504.86,525.59Z"/><path class="cls-21" d="M372.56,512c.1-1.11-1.62-1.1-1.72,0a105,105,0,0,0,.34,21.56c.13,1.09,1.85,1.1,1.72,0A105.7,105.7,0,0,1,372.56,512Z"/><path class="cls-21" d="M472.43,524.92c-1.24-3.48-.83-7.11-1.67-10.64-.78-3.25-2.83-6-3.91-9.13-1.4-4.07-1.54-8.43-1.7-12.69,0-1.11-1.77-1.11-1.73,0A44.94,44.94,0,0,0,467.65,511c1.83,3.91,1.45,7.77,2.33,11.82.84,3.88,3.23,7.06,2.88,11.18-.09,1.11,1.63,1.1,1.73,0C474.87,530.64,473.53,528,472.43,524.92Z"/><path class="cls-24" d="M421.87,654c-7.51-3.08-10.55-10.65-11-18.27-.07-1.11-1.79-1.11-1.72,0,.52,8.49,4,16.54,12.28,19.93C422.43,656.1,422.88,654.44,421.87,654Z"/><path class="cls-24" d="M503.12,656.36a15.77,15.77,0,0,1-10.85,2.85c-1.1-.11-1.1,1.62,0,1.72A17.28,17.28,0,0,0,504,657.85C504.89,657.22,504,655.73,503.12,656.36Z"/><path class="cls-24" d="M501.19,663.57a16.8,16.8,0,0,1-7.55-.69c-1.06-.34-1.51,1.32-.46,1.67a18.11,18.11,0,0,0,8,.74C502.27,665.15,502.28,663.42,501.19,663.57Z"/><path class="cls-25" d="M438,758c-6.77-3.07-13.55-6-21-6.82-1.1-.13-1.09,1.59,0,1.72,7.14.81,13.65,3.64,20.14,6.59C438.17,759.91,439.05,758.42,438,758Z"/><path class="cls-25" d="M536.38,744.56A182.4,182.4,0,0,0,514,747.41c-1.09.21-.63,1.87.46,1.66a177.08,177.08,0,0,1,21.88-2.78C537.48,746.21,537.49,744.49,536.38,744.56Z"/><path class="cls-26" d="M454.38,411.12c-2.88-.37-5.87,1.71-8,3.39a23.75,23.75,0,0,0-6.63,8.1c-.51,1,1,1.86,1.48.87a22.51,22.51,0,0,1,5-6.66c2-1.8,5.31-4.34,8.15-4C455.48,413,455.46,411.26,454.38,411.12Z"/><path class="cls-26" d="M445.83,421.45c-2.32,2.56-4.56,5.18-5.62,8.53-.33,1.06,1.33,1.51,1.66.46,1-3.05,3.07-5.43,5.18-7.77C447.79,421.85,446.57,420.63,445.83,421.45Z"/><path class="cls-26" d="M432.54,406.31c-5.38-4.58-16.18-2.65-21.56.93-.92.61-.06,2.1.87,1.48a18.27,18.27,0,0,1,9.21-3.05c3-.18,7.84-.2,10.26,1.86C432.16,408.24,433.39,407,432.54,406.31Z"/><path class="cls-26" d="M433.43,442.19a12.81,12.81,0,0,0-3.21,17.36c.59.94,2.08.08,1.49-.87a11.05,11.05,0,0,1,2.59-15C435.17,443,434.31,441.52,433.43,442.19Z"/><path class="cls-27" d="M527.36,555.64h74a1.75,1.75,0,0,1,1.75,1.75v9.28a0,0,0,0,1,0,0H525.61a0,0,0,0,1,0,0v-9.28A1.75,1.75,0,0,1,527.36,555.64Z"/><rect class="cls-12" x="521.59" y="546.39" width="71.23" height="9.25" rx="1.75"/><path class="cls-28" d="M469.43,461.56s-4.29,14.69-6.5,18.7a40,40,0,0,1-6.06,7.79s-12.64-7.1-18.14-12.6l-.16-.17a10.89,10.89,0,0,1-.34-15l4.92-5.43Z"/><polygon class="cls-28" points="438.58 448.08 443.72 455.98 442.16 458.38 436.5 449.95 438.58 448.08"/><path class="cls-29" d="M965,562.51a5.1,5.1,0,0,1-.68-8.07.75.75,0,0,0,.2-.75,2,2,0,0,0-.63-.81.66.66,0,0,0,.44-.5l.21-1.27a.79.79,0,0,0-1.14-.87v0l-.27-.37a.78.78,0,0,0-1-.27.81.81,0,0,0-.81.75c0,.15,0,.3,0,.46a.76.76,0,0,0,.38.67l.11.06.17.28c-.16.21-.29.44-.45.65-5.23.63-15.19,7.7-17.36,8.81a30.43,30.43,0,0,1-19,3.17,17.92,17.92,0,0,1-4.46-1.13c-2.88-1.37-2.74-2.46-1.77-4.81s2.34-4.71,3.26-7.17c1-2.64,1.3-5.43,2-8.14a47.1,47.1,0,0,1,3.73-9c2.36-4.62,1.46-1.44,2.91-6.44,1.66-5.68-.68-4.75,4-8.83,2.51-2.2.71-4.77-.21-7.71l2.46-4c.53-.85-.81-1.63-1.34-.78-4,6.52-5.13,6.74-8.91,13.41-3.32,5.87-1.49,4.72-4.79,10.57s-4.43,12.44-7.62,18.24c-2.67,4.86-5.73,8.92-5.75,14.84,0,12.77,17,7.42,24.3,5.9a132.82,132.82,0,0,0,20.53-6c1.92-.74,4.91-1.43,6.3-3.09.83-1,.88-2.12,1.26-3.29a15.22,15.22,0,0,1,1.36-3c.54,0-.35.55-.78,1.52a6.73,6.73,0,0,0,2.61,8.37C965.1,564.39,965.88,563.05,965,562.51Z"/><path class="cls-12" d="M1025.72,502c-10,0-20.3-.07-30.3,0-11.2,0-22.4.31-33.6.21-24.61-.22-27.77-2.76-29.87,11.93-1.9,13.28-3,25.36-5,38.61-1.64,10.47-2.89,14,1.31,15.41,6,2.06,94.35,1.1,97.9.9,5.59-.31,5.3-2.55,7-11.89,1.57-8.86,2.69-17.8,4-26.71.63-4.31,1.62-8.57,2.31-12.88.54-3.37,1.15-6.82.73-10.24-.19-1.49-.25-2.91-1.63-3.61C1034.82,501.85,1029.68,502,1025.72,502Z"/><path class="cls-6" d="M950,545.6a.81.81,0,0,0-.78-.78l-6.92-.64a.66.66,0,0,0-.43.1.76.76,0,0,0-1.12.67c0,1.67,0,3.34,0,5,0,.83-.21,2,.55,2.55s2.38.47,3.32.54a41.3,41.3,0,0,0,4.85,0,.8.8,0,0,0,.78-.78A61.86,61.86,0,0,0,950,545.6Z"/><path class="cls-6" d="M1027.57,545.6a.8.8,0,0,0-.77-.78l-6.93-.64a.63.63,0,0,0-.42.1.77.77,0,0,0-1.13.67v5c0,.83-.21,2,.55,2.55s2.38.47,3.31.54a41.47,41.47,0,0,0,4.86,0,.79.79,0,0,0,.77-.78A61.86,61.86,0,0,0,1027.57,545.6Z"/><path class="cls-21" d="M938.75,547.23a.91.91,0,0,1-.9-.85c-.49-6.22-2.92-37.32-2.92-37.91a.92.92,0,0,1,1.83,0c0,.84,1.91,25.07,2.91,37.78a.92.92,0,0,1-.84,1Zm-2-38.76h0Z"/><path class="cls-21" d="M1015.4,549.57h0l-62.67-.48a.92.92,0,0,1,0-1.83h0l62.68.48a.92.92,0,0,1,0,1.83Z"/><path class="cls-21" d="M1029.37,543.34a.79.79,0,0,1-.3-.05.9.9,0,0,1-.56-1.16l6.21-17.85a.91.91,0,0,1,1.72.6l-6.21,17.85A.9.9,0,0,1,1029.37,543.34Z"/><path class="cls-22" d="M1019.25,514.24A5.77,5.77,0,1,1,1025,520,5.77,5.77,0,0,1,1019.25,514.24Z"/><path class="cls-23" d="M1006.77,518.81a3.61,3.61,0,1,1,3.6,3.61A3.6,3.6,0,0,1,1006.77,518.81Z"/><path class="cls-13" d="M912.73,542.43s12.71,10.12,15.73,15.29A17.18,17.18,0,0,1,931,567.2H902.47Z"/><path class="cls-13" d="M762.26,542.43s-12.71,10.12-15.72,15.29A17.14,17.14,0,0,0,744,567.2h28.58Z"/><path class="cls-13" d="M890.23,656.73c-1.54,28.93-5.08,56.93-5.6,85.89a.89.89,0,0,0,.62.85c3.63,1.1,16.76,2.19,16.76,2.19s3.27-13.68,4.07-17.37q2.25-10.47,4.52-20.93l4.53-20.93c.67-3.13,1.8-18,4.22-19.54a.93.93,0,0,0,.26-1.2c.23-1,.45-2.07.67-3.11s-1.41-1.58-1.65-.49l-.6,2.77c-8.22-3.17-18.22-6.49-26.69-8.94A.88.88,0,0,0,890.23,656.73Z"/><path class="cls-29" d="M911,758.25c1.48-2,1.86-4.88.82-8.07-.94-2.87-3.84-3.83-5.26-6.35-1.08-1.93-1.82-4.06-3.35-5.71a15.75,15.75,0,0,0-8.89-5c-3.08-.48-6.61.1-8.77,2.53-2.72,3.05-2.19,7.74-2.73,11.5-.63,4.44-2.42,7.73,2.23,9.59a71.62,71.62,0,0,0,18.27,4.3C906.78,761.44,909.45,760.31,911,758.25Z"/><path class="cls-13" d="M836.42,657.3c-3.31,28.78-8.54,56.51-10.83,85.39a.87.87,0,0,0,.56.88c3.56,1.33,16.59,3.22,16.59,3.22s4.1-13.46,5.12-17.1q2.91-10.31,5.8-20.61t5.8-20.62c.86-3.08,2.9-17.82,5.4-19.24a.93.93,0,0,0,.34-1.18c.28-1,.57-2,.86-3.06s-1.32-1.67-1.62-.6c-.26.91-.51,1.82-.77,2.73-8-3.67-17.79-7.59-26.09-10.55A.88.88,0,0,0,836.42,657.3Z"/><path class="cls-29" d="M850.92,759.9c1.6-1.91,2.15-4.76,1.31-8-.76-2.92-3.6-4-4.86-6.65-1-2-1.57-4.17-3-5.91a15.72,15.72,0,0,0-8.56-5.52c-3-.67-6.6-.31-8.91,2-2.9,2.88-2.66,7.6-3.43,11.32-.9,4.39-2.88,7.56,1.64,9.7a71,71,0,0,0,18,5.41C846.54,762.83,849.28,761.86,850.92,759.9Z"/><path class="cls-15" d="M821.62,665.28a80.34,80.34,0,0,1,3.53,32c-.21,2.17-.76,4.39-.54,6.56a21.15,21.15,0,0,1,5.58-.16c3.64.49,37,6.82,38,2.73,4.67-19.4,3.71-41.84,4-47.9.45-11.2-19.39-34.46-20.68-34.46s-73.38,3-73.38,3c1.43,1.29-2.45,29.3,5.31,34S821.62,665.28,821.62,665.28Z"/><path class="cls-15" d="M875.41,667.25c1,1.12,2.37,23.2,2.07,40.7,2.29.23,8.35,1.47,10.67,1.5,6,.09,29.85-1.68,33.78-1.5,4.2-25.57,3.28-62.94-.86-67.8-6.6-7.75-34.46-20.39-34.46-20.39l-51,5.74s-1.81,23.84,2.5,36.76S873.69,665.38,875.41,667.25Z"/><path class="cls-16" d="M1047.37,764.23a2.73,2.73,0,0,1-2.74-2.73V581a2.74,2.74,0,1,1,5.47,0V761.5A2.73,2.73,0,0,1,1047.37,764.23Z"/><path class="cls-16" d="M730.45,764.23a2.74,2.74,0,0,1-2.74-2.73V581a2.74,2.74,0,0,1,5.48,0V761.5A2.74,2.74,0,0,1,730.45,764.23Z"/><path class="cls-17" d="M730.78,567.2H1047a3,3,0,0,1,3,3v13.37a0,0,0,0,1,0,0H727.78a0,0,0,0,1,0,0V570.2A3,3,0,0,1,730.78,567.2Z"/><path class="cls-13" d="M867.44,439c-.22-1.06-.47-2.1-.72-3.16a91.66,91.66,0,0,0-4.32-13.38c-5.76-14-23.38-15.44-36.19-12.24-17,4.2-25.06,17.33-27.45,33.16-1.32,8.74,4.8,16.13,8,24.12,4.31,10.7,5.18,12.89,19.84,18.37,8.38,3.11,25.2,5.46,33.46,1.32,4.13-2.06,6.91-7.43,8.34-14.63.25-1.15.44-2.35.61-3.6C870.21,460.26,869.66,449.55,867.44,439Z"/><polygon class="cls-13" points="849.09 486.52 846.52 504.9 829.04 520.1 811.19 502.01 813.47 473.81 849.09 486.52"/><path class="cls-6" d="M778.68,630.31S789.74,640.8,794,646s7.9,6.18,12.21,3.16,17.12-6.31,26.37-7,13.84.72,20.16-3.31,12.2-7,9.76-7.46S778.68,630.31,778.68,630.31Z"/><path class="cls-30" d="M892.6,628.43c-2.83-18.57.22-30.53-2-45.06-2.79-18.39-3.16-36.51-7.27-54.66-1.66-7.26-6.69-15-11.36-21-3.72-4.77-8.51-6.94-14-8.29a.74.74,0,0,0-.08-.45c-1.69-3.55-5-5.17-8.83-5.51-5.82-.53-11.72.6-17.61,0-6.84-.65-13.48-2.64-20.33-3.29a6.38,6.38,0,0,0-2.31.09c-2.4.72-5.52,4.1-7.86,5.44-3.64,2.07-7.39,3.91-11.18,5.67-4.95,2.29-10,4.89-13.31,9.39-3.58,4.93-3.86,11-3.74,16.91a96.84,96.84,0,0,1,0,10.08c-.29,4.08-1.51,8-2.2,12C768,565,774.26,580,772.68,595.26c-.85,8-3.35,15.72-4.71,23.64-.65,3.8-2.72,10.45,1,13.17,1.9,1.38,4.72,1.57,7,1.88a79.71,79.71,0,0,0,12,.74c7.82-.05,15.61-1,23.38-1.67,16.2-1.43,32.24-.14,48.42.79,7.9.47,15.84,1.24,23.75,1.36C888.36,635.26,893.35,633.47,892.6,628.43Z"/><path class="cls-30" d="M912.9,561.38c2.42-5,1-12.43-.17-19-3.09-.95-29.21-42.74-53.82-42.71-1.11,0-1.53,1.37-.46,1.66a64.06,64.06,0,0,1,9.25,3.34c-1.85,2-1.61,4.54-1.12,7.14,1.16,6.18,2.92,12.32,4.6,18.37q5,17.85,11.66,35.16a23.33,23.33,0,0,0,2.73,1.81h24.81C910.27,565.4,912.12,563,912.9,561.38Z"/><path class="cls-30" d="M776.51,510.83s-10,8.12-13.11,20.76-10.92,12.63-10.63,22.69,5.75,12.92,5.75,12.92h19.53Z"/><path class="cls-18" d="M867.17,446.75c-.33-1.13-.95-2.22-2.12-2.12a.79.79,0,0,0-.22.05c-2.63.68-1.33,5.21.35,6.1l.12.06a1,1,0,0,0,.86.05c1.19-.46,1.52-1.23,1.34-2.55A10.52,10.52,0,0,0,867.17,446.75Z"/><path class="cls-13" d="M868,447.8s6.34,7.52,6.58,9.54-6.22,4.49-6.22,4.49Z"/><path class="cls-6" d="M869,469c-.16,1.26-.36,2.46-.6,3.61h-.17a7.09,7.09,0,0,1-6.14-4.6s1.09,1,4,1.21A11.76,11.76,0,0,0,869,469Z"/><path class="cls-14" d="M867.44,439a4,4,0,0,1-1.22.39c-2.18.32-4.41.48-6.61.71-1.36.13-1.67-.9-1.16-1.64a6.67,6.67,0,0,1,2.6-1.57,11.46,11.46,0,0,1,5.67-1.05C867,436.9,867.22,437.94,867.44,439Z"/><path class="cls-16" d="M909,764.23a2.73,2.73,0,0,1-2.68-2.17l-19.24-92.2a2.74,2.74,0,0,1,5.36-1.12l19.24,92.2a2.7,2.7,0,0,1-2.68,3.29Z"/><path class="cls-16" d="M809.7,764.23a2.73,2.73,0,0,1-2.68-2.17l-19.24-92.2a2.74,2.74,0,0,1,5.36-1.12l19.24,92.2a2.7,2.7,0,0,1-2.68,3.29Z"/><path class="cls-17" d="M770.42,657.1H894.81a3,3,0,0,1,3,3v13.37a0,0,0,0,1,0,0H767.42a0,0,0,0,1,0,0V660.1A3,3,0,0,1,770.42,657.1Z"/><rect class="cls-17" x="767.42" y="538.77" width="115.46" height="77.83" rx="3"/><path class="cls-16" d="M775.17,766a2.74,2.74,0,0,1-2.74-2.74V575.38a2.74,2.74,0,0,1,5.48,0V763.22A2.74,2.74,0,0,1,775.17,766Z"/><path class="cls-16" d="M875.41,766a2.74,2.74,0,0,1-2.74-2.74V575.38a2.74,2.74,0,0,1,5.48,0V763.22A2.74,2.74,0,0,1,875.41,766Z"/><path class="cls-6" d="M858,499.43a117.23,117.23,0,0,1-25.49,3.66c-12.63.13-30.72-7.48-31.53-7.33,2.34-1.34,5.46-4.72,7.86-5.44a6.38,6.38,0,0,1,2.31-.09c6.85.65,13.49,2.64,20.33,3.29,5.89.55,11.79-.58,17.61,0,3.81.34,7.14,2,8.83,5.51A.74.74,0,0,1,858,499.43Z"/><path class="cls-14" d="M865.34,412.22c-.65-1.79-2-3.1-3.09-4.61-1.65-2.24-2.07-4.86-3.47-7.18-3.09-5.09-10.39-5.52-14.62-1.88-6.2-4-14.22-7.5-20.21-4.31-2.38,1.27-3.43,3.79-6,4.75-1.78.66-3.73.77-5.43,1.64-2.62,1.34-3.51,3.7-3.71,6.33-3.2,2.64-5.83,5.82-10,6.89-4.41,1.13-9.17,2.64-11.71,6.75a7.84,7.84,0,0,0-1.36,3.69c0,1.59,1.39,2.35,1.43,3.77a.78.78,0,0,0,.15.45c-1.4,2.61-3.45,3.44-5.21,5.59a4.42,4.42,0,0,0-1.11,3.65c.31,2.1,2,3.38,3.41,4.78,3.12,3.21,1.24,6.25,3,9.57a6,6,0,0,0,3.26,2.63c2.35.95,4.51,1.11,6.5,1.73,2.77,6.18,6.42,12.12,9.51,18.05,1.36,2.61,5.74,9.93,5.74,9.93a20.53,20.53,0,0,1,5.77-.1c2.78.65,11.2.34,12.19.11,5.8-6.88,10-15.67,12.69-24.25-2.19-2.64-4.19-6.08-4-9.62a7.15,7.15,0,0,1,3.45-5.54c.83-.57,2.19-.93,2.72-1.79.66-1.07.12-2.68.58-3.85,1.26-3.22,4.38-5.09,7-7.13,4.12-3.24,8.88-6.88,11.52-11.5a12.25,12.25,0,0,0,1.3-3.17A9.23,9.23,0,0,0,865.34,412.22Z"/><path class="cls-25" d="M823.34,452.93a6.12,6.12,0,0,1-5.87,2.89c-4-.35-1.63-1.37-2.91-1.54-.95-.13-.83-.28-1.77.09s-1.57,1.6-2.41,2.15c-3.15,2.09-7,1.19-9.61-1.3-.8-.77-1.94.52-1.15,1.29a9.59,9.59,0,0,0,6.29,2.93c3.16.15,4.42-1.45,6.93-2.76,2.1-1.1,4.5,1.43,7.21.84a7.39,7.39,0,0,0,4.82-3.8C825.44,452.76,823.9,452,823.34,452.93Z"/><path class="cls-25" d="M834.76,446.39c-1.58,2-3.39,5.35-6.42,4.1-1-.42-1.81,1.11-.78,1.54a5.07,5.07,0,0,0,4.46-.13c1.7-.92,2.85-2.89,4-4.36C836.74,446.67,835.46,445.52,834.76,446.39Z"/><path class="cls-25" d="M856.09,418.44a9.25,9.25,0,0,0-8.69.79c-3.16,2-4.22,5.16-6.12,8.13s-5.6,3.81-7.51,6.88a9.55,9.55,0,0,0-.84,8c.32,1.06,2,.51,1.63-.56a7.7,7.7,0,0,1,2.69-8.62c1.41-1,3.07-1.54,4.26-2.88,3.93-4.4,5.25-13.47,13.8-10.17C856.34,420.37,857.13,418.84,856.09,418.44Z"/><path class="cls-25" d="M829.2,430.86c-4.84,2.09-6.66,7.16-5.81,12.15.18,1.08,1.9,1,1.72-.1-.71-4.17.48-8.62,4.65-10.42C830.77,432.05,830.23,430.42,829.2,430.86Z"/><path class="cls-25" d="M835.66,399.69c-5-3.61-9.19-2-13.34,1.73-2.3,2.07-5.22,1.21-7.76,2.83a7.86,7.86,0,0,0-3.46,5.44c-.19,1.09,1.49,1.46,1.69.37.59-3.28,2.71-4.87,5.94-5.28a7.67,7.67,0,0,0,3.39-.74c.81-.48,1.19-1.28,1.82-1.93,3.06-3.17,6.91-3.77,10.58-1.13C835.41,401.62,836.57,400.34,835.66,399.69Z"/><path class="cls-31" d="M887.53,560.79h-.15a.92.92,0,0,1-.76-1c0-1.82-5.42-29.27-9-47.35a.91.91,0,0,1,1.79-.36c2.79,14,9.27,46.62,9,47.94A.91.91,0,0,1,887.53,560.79Z"/><path class="cls-31" d="M771.21,535.37l-.19,0a.92.92,0,0,1-.7-1.09l4-18.3a.91.91,0,0,1,1.79.38l-4,18.31A.91.91,0,0,1,771.21,535.37Z"/><path class="cls-19" d="M767.42,581.9a.91.91,0,0,1-.91-.91V569.87a.91.91,0,1,1,1.82,0V581A.91.91,0,0,1,767.42,581.9Z"/><path class="cls-32" d="M846.93,489.1a.92.92,0,0,1-.45-.12l-3.79-2.16a.91.91,0,0,1,.9-1.59l3.79,2.16a.91.91,0,0,1,.34,1.24A.89.89,0,0,1,846.93,489.1Z"/><path class="cls-29" d="M1027.11,557.16v8.51a1.65,1.65,0,0,1-1.76,1.54H956.51a1.67,1.67,0,0,1-1.77-1.54v-8.51a1.66,1.66,0,0,1,1.77-1.52h68.84A1.64,1.64,0,0,1,1027.11,557.16Z"/><rect class="cls-22" x="964.9" y="555.64" width="5.91" height="11.56"/><path class="cls-12" d="M872.58,454.36a2.64,2.64,0,0,1,2.14,2.88c-.56,5.14-2,16.91-3.7,20a39.86,39.86,0,0,1-6.07,7.79s-14.46-8.93-20-14.43l-.16-.17a10.88,10.88,0,0,1-.36-15l4.94-5.44Z"/><polygon class="cls-12" points="844.84 443.26 849.98 451.16 848.42 453.56 842.76 445.13 844.84 443.26"/><path class="cls-13" d="M322.32,784.8c.17-1,.33-2.09.5-3.15s-1.5-1.49-1.67-.4-.3,1.87-.46,2.81c-8.37-2.76-18.52-5.56-27.11-7.57a.86.86,0,0,0-1.06.86c-.06,25.84-1.75,51-1.42,76.66,0,0,0,.09,0,.24.05,3,.11,6.1.21,9.17a.68.68,0,0,0,.07.28.87.87,0,0,0,.59.53,70.86,70.86,0,0,0,9.74,1h0c.38,0,.76,0,1.12,0,1.29.08,2.48.15,3.45.18l2.53.09s.11-.59.28-1.56c.11-.59.25-1.32.4-2.17.32-1.7.7-3.8,1.09-5.89v0c.58-3.22,1.16-6.4,1.4-7.91q1.72-10.57,3.46-21.14t3.44-21.14c.52-3.15.89-18,3.22-19.72A.94.94,0,0,0,322.32,784.8Z"/><path class="cls-13" d="M312.84,866.44a11,11,0,0,1-1.66-1.88,4.19,4.19,0,0,1-.48-1.43,16,16,0,0,1-.22-1.84,45.11,45.11,0,0,1,.11-5.35v0a71.09,71.09,0,0,0-10.12-2.48c-3.11-.32-9.37.57-9.37.57s0,.09,0,.24c0,1.11-.24,5.76-.47,9.62-.1,1.62-.19,3.12-.28,4.13-.25,2.65-.87,6,1.15,8.17,2.26,2.34,17.08,4.21,20.9,3.86,2.28-.21,4.83-.76,6.22-2.68a1.82,1.82,0,0,0,.24-.35C321.37,872.73,316,869.39,312.84,866.44Z"/><path class="cls-7" d="M318.85,877a1.82,1.82,0,0,1-.24.35c-1.39,1.92-3.94,2.47-6.22,2.68-3.82.35-18.64-1.52-20.9-3.86-2-2.13-1.4-5.52-1.15-8.17.09-1,.18-2.51.28-4.13.21-.06.46-.11.75-.17,2.44-.5,7.25-1,10.33,1.54h0c.14.12.28.24.42.38v0l.69-.35c2.24-1.12,4.47-2.24,6.66-3.46.33-.17.65-.35,1-.54a16,16,0,0,0,.22,1.84c-.52.3-1.06.59-1.6.87-.93.51-1.86,1-2.81,1.47l-3,1.5a10.15,10.15,0,0,1,2.32,7.1l3.84.49s1.88-1.07,2.87-5.49c.21-1,.38-1.88.49-2.63C316,869.39,321.37,872.73,318.85,877Z"/><polygon class="cls-13" points="317.28 661.33 320.3 665.35 335.16 670.16 337.33 680.6 335.02 684.59 304.93 684.59 297.59 674.4 317.28 661.33"/><polygon class="cls-13" points="181.84 661.33 188.07 666.52 206.08 668.76 207.74 680.6 205.43 684.59 163.28 684.59 165.92 666.64 181.84 661.33"/><polygon class="cls-13" points="258.16 612.9 274.67 622.38 220.84 624.37 213.04 615.35 226.19 610.6 258.16 612.9"/><path class="cls-27" d="M348.92,684.22a1.82,1.82,0,0,1-1.82-1.74l-1.84-42.14a1.83,1.83,0,0,1,3.65-.16l1.84,42.14a1.83,1.83,0,0,1-1.74,1.9Z"/><path class="cls-13" d="M275,783.06c0-1.07.07-2.12.1-3.19s-1.67-1.29-1.7-.19-.07,1.9-.11,2.85c-8.65-1.69-19.07-3.19-27.85-4.11a.87.87,0,0,0-.94,1c3.18,25.64,4.67,50.8,8.22,76.23,0,0,0,.09,0,.24.43,3,.88,6,1.37,9.07a.63.63,0,0,0,.1.27.89.89,0,0,0,.65.45,69.92,69.92,0,0,0,9.79-.22h0c.38,0,.76-.05,1.12-.09,1.29-.08,2.48-.17,3.45-.26l2.51-.22s0-.6.09-1.59c0-.6.08-1.34.12-2.2.1-1.73.22-3.86.34-6v0c.18-3.27.35-6.5.4-8q.39-10.69.77-21.4t.76-21.4c.12-3.19-1.38-18,.73-20A.94.94,0,0,0,275,783.06Z"/><path class="cls-13" d="M275.83,865.24a10.89,10.89,0,0,1-1.88-1.65,4.2,4.2,0,0,1-.65-1.36,15.77,15.77,0,0,1-.45-1.8,46.83,46.83,0,0,1-.57-5.32v0a71.68,71.68,0,0,0-10.35-1.19c-3.12.07-9.22,1.74-9.22,1.74s0,.09,0,.24c.11,1.11.49,5.74.75,9.6.1,1.62.2,3.12.24,4.14.08,2.65-.11,6.1,2.17,8,2.53,2,17.47,2,21.21,1.21,2.24-.5,4.7-1.37,5.84-3.45a1.69,1.69,0,0,0,.19-.38C285.09,870.41,279.37,867.77,275.83,865.24Z"/><path class="cls-13" d="M333.66,670.17s12.66-3.78,16.43-2.59,1.29,3.44,3.12,5.92,3,3,2.91,5.6a16.68,16.68,0,0,1-1.51,5.49H333.07Z"/><path class="cls-12" d="M347.36,794.71c-2-6.65-10.12-36.5-14.71-40.76-11.78-10.91-32.7-17-34.18-16.8l-39.82,4.48c-16.14.65-68.74,2.85-68.74,2.85,1.43,1.29-2.45,29.29,5.31,34,5.58,3.41,27.18,4.07,38.83,4.17a63.72,63.72,0,0,1-1.45,16.62c-.62,2.74-3.68,9,.08,11,1.91,1,5.07.55,7.17.68a58.74,58.74,0,0,0,9.09.29c7.9-.79,15.68-1.35,23.65-1.44s15.74,0,23.6.43c7.44.36,15.15,1.8,22.57,1.5a13.94,13.94,0,0,0,6.26-1.69,15.83,15.83,0,0,1,6-2.34c2.24-.27,4.52,0,6.77-.27,2.79-.28,10.3-1.17,11.41-4.53C350,800.62,348,796.93,347.36,794.71Z"/><path class="cls-16" d="M459.23,881.63a2.74,2.74,0,0,1-2.74-2.74V698.38a2.74,2.74,0,1,1,5.47,0V878.89A2.74,2.74,0,0,1,459.23,881.63Z"/><path class="cls-16" d="M142.31,881.63a2.74,2.74,0,0,1-2.74-2.74V698.38a2.74,2.74,0,0,1,5.48,0V878.89A2.74,2.74,0,0,1,142.31,881.63Z"/><path class="cls-17" d="M142.65,684.59H458.89a3,3,0,0,1,3,3V701a0,0,0,0,1,0,0H139.65a0,0,0,0,1,0,0V687.59A3,3,0,0,1,142.65,684.59Z"/><path class="cls-13" d="M286.46,562.81a92.94,92.94,0,0,0-1.83-15.87c-3.1-15-20.32-19.69-33.61-18.92-17.61,1-28.11,12.51-33.45,27.75-2.94,8.42-2.26,16.75-.55,25.29,2.29,11.41,6.75,13.91,20.26,22.07,7.72,4.67,24,10.14,32.94,7.6,4.48-1.28,8.24-6.09,11-13,.46-1.11.88-2.26,1.27-3.47a92.17,92.17,0,0,0,4-28.6C286.52,564.76,286.5,563.79,286.46,562.81Z"/><polygon class="cls-13" points="261.27 603.47 258.68 622.03 241.03 637.37 223.01 619.12 225.32 590.64 261.27 603.47"/><path class="cls-29" d="M295.18,646.11c-1.65-7.26-6.68-15-11.35-21a21.57,21.57,0,0,0-8.19-6.37c-6-2.72-14.3-.1-20.73-.07-12.52,0-27.39-.93-38.86-6.41-2.06-1-4,1.34-5.66,2.24-2.86,1.55-5.79,3-8.73,4.32-4.94,2.28-10,4.89-13.29,9.39-3.59,4.93-3.87,11-3.74,16.91.07,3.35.31,6.72.05,10.07-.31,4.09-1.52,8-2.21,12-1.58,9.28.16,18.62,1.36,27.84.85,6.59.62,13.26,1.8,19.8,2.08,11.54,4.28,29.61,4.28,29.61s26.16,3.94,31.89,4.31a174.55,174.55,0,0,0,25-.17c11.84-.94,25.93.39,36.91-4.14a109.83,109.83,0,0,0,14.71-7.33s-3.71-35.67-1.79-47.39A107.88,107.88,0,0,0,295.18,646.11Z"/><path class="cls-18" d="M284.48,571.93c.32-1.15.37-2.4-.69-2.95a.9.9,0,0,0-.21-.08c-2.62-.82-3.93,3.76-3,5.42a.75.75,0,0,1,.07.12,1.08,1.08,0,0,0,.71.5c1.26.24,2-.24,2.51-1.47A12.06,12.06,0,0,0,284.48,571.93Z"/><path class="cls-13" d="M284.89,578.2s4.33,8.92,4.07,11-7.2,2.85-7.2,2.85Z"/><path class="cls-32" d="M282.5,594.3c-.39,1.22-.82,2.38-1.27,3.47l-.17,0a7.18,7.18,0,0,1-5.23-5.72s.9,1.17,3.71,2A11.59,11.59,0,0,0,282.5,594.3Z"/><path class="cls-22" d="M286.52,565.71a4.24,4.24,0,0,1-2.17.08c-2-.55-4.07-1.27-6.11-1.89a1.05,1.05,0,0,1-.46-1.93c1.1-.81,3.54-.59,4.83-.46a8.08,8.08,0,0,1,3.85,1.3C286.5,563.79,286.52,564.76,286.52,565.71Z"/><path class="cls-32" d="M351.38,672.8h-.08l-4.6-.43a.91.91,0,0,1,.17-1.81l4.6.43a.9.9,0,0,1,.82,1A.91.91,0,0,1,351.38,672.8Z"/><path class="cls-32" d="M353.9,677.47h-.12l-7.9-1a.91.91,0,1,1,.23-1.81l7.9,1a.91.91,0,0,1-.11,1.82Z"/><path class="cls-32" d="M353.89,682.49h-6.17a.92.92,0,0,1,0-1.83h6.17a.92.92,0,1,1,0,1.83Z"/><path class="cls-29" d="M275.64,618.75s12.49,3.94,20,9.47,20.69,29.95,23.7,33.11-23.13,27.57-23.13,27.57Z"/><path class="cls-29" d="M198.56,620.33s-15.55,4.24-22.44,17.74S161.76,670,160.9,671.67s37.91,10.64,38.77,10.63S198.56,620.33,198.56,620.33Z"/><rect class="cls-20" x="184.83" y="630.02" width="1.83" height="22.34" transform="translate(-72.96 25.81) rotate(-6.65)"/><rect class="cls-20" x="277.85" y="639.2" width="24.41" height="1.83" transform="translate(-369.82 881.86) rotate(-85.74)"/><path class="cls-21" d="M328.18,765.41c-8,6.94-17.55,12.39-28.48,10.85-1.09-.15-1.56,1.51-.46,1.66,11.59,1.64,21.66-3.88,30.16-11.29C330.24,765.9,329,764.68,328.18,765.41Z"/><path class="cls-21" d="M321.87,781.72q-9.51-1.4-18.93-3.21c-1.08-.21-1.55,1.45-.46,1.66q9.43,1.82,18.93,3.21C322.49,783.54,323,781.88,321.87,781.72Z"/><path class="cls-7" d="M283.12,875a1.69,1.69,0,0,1-.19.38c-1.14,2.08-3.6,2.95-5.84,3.45-3.74.82-18.68.82-21.21-1.21-2.28-1.86-2.09-5.31-2.17-8,0-1-.14-2.52-.24-4.14.2-.08.44-.17.72-.26,2.36-.81,7.06-1.93,10.44.23h0a4.38,4.38,0,0,1,.46.33h0l.64-.43c2.08-1.39,4.15-2.79,6.17-4.27.31-.21.6-.43.91-.66a15.77,15.77,0,0,0,.45,1.8c-.48.36-1,.72-1.48,1.06-.86.62-1.73,1.23-2.6,1.81L266.46,867a10.12,10.12,0,0,1,3.19,6.76h3.87s1.73-1.29,2.16-5.81c.08-1,.14-1.91.15-2.67C279.37,867.77,285.09,870.41,283.12,875Z"/><path class="cls-22" d="M285.11,545.2c-.11-2.47-.1-4.24-.8-5.92a9,9,0,0,0-2.16-3c-2.65-2.62-5.35-5.85-8.7-7.61-11.6-6.09-24.31-5.76-36.85-1.77a48.14,48.14,0,0,0-23.45,16.91c-3.79,5.17-3.87,11.54-3.75,17.7.12,6.51-.05,13.8,1.75,20.12a19.21,19.21,0,0,0,3.61,6.7c1.54,1.93,3.55,3.4,5.2,5.23,1,1.15,1.39,2.79,2.46,3.91.07.08.14.12.21.19a10.06,10.06,0,0,0-4,3c-1.13,1.34-2,2.87-3,4.29-1.67,2.33-4.56,3.24-6.39,5.39-2.19,2.59-2.88,6.11-5.38,8.58-2,2-4,3.26-5.45,5.76s-1.4,5-2.52,7.45c-.85,1.89-1.92,3.47-2.54,5.29l.13,0a4.7,4.7,0,0,0,2.46,6c2.76,1.46,6,.44,8.73,2.14,2,1.26,2.6,2.73,5.25,3a15.3,15.3,0,0,0,3.31-.13c3.6-.38,4.82-.46,8.44.84,2.62.93,5,.86,7.7,1.48a16,16,0,0,0,6.81.41c4-.86,2.37-3.35,1.28-5.87s.36-3,1.05-4.94c.77-2.21-.3-4.25-.08-6.43s2.11-4.18,2.82-6.29c1.62-4.77,2-10.09,3.25-15,1.1-4.25.61-8.49-.24-12.7.13,0,.8-1.4.92-1.51,2.45-2.27,3.68-2.75,5.88-5.35,2.64-3.14,7.21-4.9,9.78-8.07a13.17,13.17,0,0,0,2.22-3.77,16.74,16.74,0,0,1-4.91-12.79c.09-4.12,1.77-7.78,6-7.44,1.72-1,3.77-1.74,5.54-3.31s2.73-3.53,5.19-4.33c1.61-.52,10.49-2.29,10.49-2.29Z"/><path class="cls-32" d="M259.38,611.14a1,1,0,0,1-.48-.14L253,607.41a.93.93,0,0,1-.31-1.26.91.91,0,0,1,1.26-.3l5.89,3.59a.92.92,0,0,1-.48,1.7Z"/><path class="cls-33" d="M240.13,598.07a27,27,0,0,0-6.34-1.46,25.4,25.4,0,0,0-3.38-.1c-1.2.06-3,.52-4.17.25s-1.54,1.41-.46,1.67c2,.45,4.06-.24,6.08-.21a24.5,24.5,0,0,1,7.81,1.51C240.72,600.11,241.17,598.44,240.13,598.07Z"/><path class="cls-33" d="M240.3,605c-.05-1.11-1.77-1.12-1.72,0a23.31,23.31,0,0,1-.21,6.13c-.56,2.52-2.2,4-3.63,6a10,10,0,0,0-2,5.22c-.38,3.46.38,6.63-.72,10-.89,2.77-2.13,4.73-1.6,7.69.2,1.09,1.86.63,1.66-.46-.6-3.38,1.81-6.26,2.27-9.48.52-3.59-.81-7.59,1.05-10.93,1.33-2.4,3.46-3.72,4.35-6.4A22,22,0,0,0,240.3,605Z"/><path class="cls-33" d="M227.49,633a15.64,15.64,0,0,0-2.71,7.92c-.07,1.1,1.65,1.1,1.72,0a13.88,13.88,0,0,1,2.48-7.05C229.61,633,228.11,632.11,227.49,633Z"/><path class="cls-33" d="M243.48,532.43c-4.1,1.85-7.18,3.8-9.13,8a42.07,42.07,0,0,0-4,16.83.87.87,0,0,0,1.73,0,40.33,40.33,0,0,1,3-14c1.89-4.85,4.62-7.24,9.3-9.34C245.36,533.46,244.49,532,243.48,532.43Z"/><path class="cls-33" d="M225.5,592.27c-1.9-1.28-3.09-3.36-4.4-5.2l-4.07-5.7c-.64-.89-2.14,0-1.49.87q2.53,3.57,5.09,7.13a16.44,16.44,0,0,0,4,4.39C225.56,594.38,226.42,592.89,225.5,592.27Z"/><path class="cls-33" d="M230.78,571.93a52,52,0,0,1-2.23-14.28.87.87,0,0,0-1.73,0,53.41,53.41,0,0,0,2.3,14.74A.86.86,0,0,0,230.78,571.93Z"/><path class="cls-16" d="M320.87,881.63a2.74,2.74,0,0,1-2.68-2.18L299,787.26a2.74,2.74,0,1,1,5.36-1.12l19.24,92.19a2.74,2.74,0,0,1-2.12,3.24A2.67,2.67,0,0,1,320.87,881.63Z"/><path class="cls-16" d="M221.56,881.63a2.74,2.74,0,0,1-2.68-2.18l-19.24-92.19a2.74,2.74,0,1,1,5.36-1.12l19.24,92.19a2.75,2.75,0,0,1-2.68,3.3Z"/><path class="cls-17" d="M182.28,774.49H306.67a3,3,0,0,1,3,3v13.37a0,0,0,0,1,0,0H179.28a0,0,0,0,1,0,0V777.49A3,3,0,0,1,182.28,774.49Z"/><rect class="cls-17" x="179.28" y="656.16" width="115.46" height="77.83" rx="3"/><path class="cls-16" d="M187,883.35a2.74,2.74,0,0,1-2.74-2.74V692.78a2.74,2.74,0,0,1,5.48,0V880.61A2.74,2.74,0,0,1,187,883.35Z"/><path class="cls-16" d="M287.27,883.35a2.74,2.74,0,0,1-2.74-2.74V692.78a2.74,2.74,0,0,1,5.48,0V880.61A2.74,2.74,0,0,1,287.27,883.35Z"/><path class="cls-19" d="M179.28,700.37a.91.91,0,0,1-.91-.91V686.53a.91.91,0,0,1,1.82,0v12.93A.91.91,0,0,1,179.28,700.37Z"/><path class="cls-34" d="M289,586.55s3.11,13.24-5.91,18.61a12,12,0,0,0-2.92,2.57,7.39,7.39,0,0,1-9.61,1.33c-3.95-2.5-8.79-5.83-11.67-8.71l-.15-.14a10.91,10.91,0,0,1-.35-15l4.92-5.43Z"/><polygon class="cls-34" points="258.71 572.99 263.85 580.89 262.29 583.29 256.62 574.86 258.71 572.99"/><path class="cls-12" d="M756.78,684.22a1.59,1.59,0,0,1-.48-.07,1.73,1.73,0,0,1-1.18-2.14l11.78-40.49a1.72,1.72,0,1,1,3.31,1L758.43,683A1.72,1.72,0,0,1,756.78,684.22Z"/><path class="cls-13" d="M708.47,783.9c7.52,28,12.85,55.69,21.35,83.39a.87.87,0,0,0,.84.61c3.8-.08,16.62-3.12,16.62-3.12s-1.14-14-1.53-17.78q-1.1-10.65-2.2-21.3l-2.19-21.3c-.33-3.18-3.86-17.64-2.05-19.88a.94.94,0,0,0-.13-1.23l-.32-3.16c-.12-1.1-1.84-1.06-1.73,0l.3,2.83c-8.81-.47-19.34-.52-28.15-.22A.88.88,0,0,0,708.47,783.9Z"/><path class="cls-6" d="M759.7,874c.79-2.37.25-5.22-1.73-7.93-1.77-2.44-4.83-2.45-7-4.4-1.63-1.5-3-3.3-5-4.39a15.83,15.83,0,0,0-10-2c-3.08.51-6.25,2.15-7.55,5.13-1.64,3.74.32,8,1,11.78.77,4.42.1,8.1,5.09,8.42a71.24,71.24,0,0,0,18.7-1.58C756.71,878.3,758.9,876.39,759.7,874Z"/><path class="cls-13" d="M647.9,781.91c-3.31,28.79-8.55,56.51-10.84,85.4a.89.89,0,0,0,.56.88c3.56,1.32,16.6,3.21,16.6,3.21s4.1-13.46,5.12-17.09l5.79-20.62q2.91-10.31,5.8-20.61c.87-3.08,2.9-17.82,5.41-19.24a1,1,0,0,0,.33-1.19c.29-1,.58-2,.86-3.06s-1.31-1.66-1.61-.59c-.26.91-.52,1.82-.77,2.73-8-3.67-17.79-7.6-26.1-10.56A.87.87,0,0,0,647.9,781.91Z"/><path class="cls-6" d="M662.4,884.51c1.59-1.91,2.15-4.76,1.3-8-.75-2.91-3.59-4-4.85-6.65-1-2-1.57-4.16-3-5.91a15.8,15.8,0,0,0-8.57-5.52c-3-.66-6.6-.31-8.91,2-2.9,2.87-2.66,7.59-3.42,11.31-.91,4.39-2.89,7.57,1.64,9.71a71.69,71.69,0,0,0,18,5.41C658,887.44,660.75,886.47,662.4,884.51Z"/><path class="cls-13" d="M748.38,669.68s12.6-2.37,16.37-1.19,1.29,3.45,3.12,5.93,3,3,2.91,5.6a16.77,16.77,0,0,1-1.51,5.49H747.73Z"/><path class="cls-29" d="M590.56,745.39c1.43,1.3-2.44,29.3,5.31,34s46.38,4.16,46.38,4.16-2.87,14.36-4.59,32-4.74,34.47-4.31,36.19,30.59,4.36,32.74,3.93,18.07-67.69,18.53-78.89-19.39-34.46-20.68-34.46S590.56,745.39,590.56,745.39Z"/><path class="cls-29" d="M699.12,738.07s27.86,12.64,34.47,20.39,20.13,86.45,16.53,87.31c-2,.47-30.1,10.34-34.16,6s-12-62.32-13.68-64.19-47.39,5.89-51.69-7-2.51-36.77-2.51-36.77Z"/><path class="cls-16" d="M859.88,882.54a2.73,2.73,0,0,1-2.74-2.73V699.3a2.74,2.74,0,0,1,5.48,0V879.81A2.74,2.74,0,0,1,859.88,882.54Z"/><path class="cls-16" d="M543,882.54a2.74,2.74,0,0,1-2.74-2.73V699.3a2.74,2.74,0,0,1,5.48,0V879.81A2.73,2.73,0,0,1,543,882.54Z"/><path class="cls-17" d="M543.3,685.51H859.54a3,3,0,0,1,3,3v13.37a0,0,0,0,1,0,0H540.3a0,0,0,0,1,0,0V688.51A3,3,0,0,1,543.3,685.51Z"/><path class="cls-13" d="M678.64,542.8c-4.94-14.31-22.46-16.75-35.42-14.29-17.17,3.22-26,15.88-29.31,31.53-1.82,8.65-.08,16.75,2.69,24.92,3.7,10.91,8.4,12.79,22.72,19.1,8.18,3.58,24.84,6.89,33.32,3.24,4.24-1.82,7.33-7,9.17-14.13.31-1.13.57-2.32.8-3.57C685.15,576.35,684,558.14,678.64,542.8Z"/><polygon class="cls-13" points="661.6 604.83 659.03 623.22 641.55 638.41 623.7 620.33 625.98 592.12 661.6 604.83"/><path class="cls-3" d="M703.12,701.68c-2.81-18.39-3.17-36.51-7.29-54.66-1.64-7.26-6.68-15-11.35-21-3.72-4.77-8.51-6.95-14-8.29a.91.91,0,0,0-.07-.45c-1.7-3.55-5-5.16-8.84-5.51-5.83-.53-11.71.6-17.6.05-6.86-.65-13.49-2.63-20.34-3.28a6.34,6.34,0,0,0-2.3.08c-2.4.71-5.52,4.09-7.87,5.44-3.63,2.08-7.39,3.92-11.19,5.68-4.93,2.28-10,4.89-13.29,9.39-3.58,4.93-3.87,11-3.74,16.9.07,3.36.31,6.73.06,10.08-.31,4.09-1.53,8-2.22,12-2.59,15.21,3.66,30.2,2.06,45.44-.84,8-3.34,15.71-4.7,23.63-.65,3.79-2.73,10.44,1,13.17,1.9,1.37,4.72,1.56,6.94,1.88a81.32,81.32,0,0,0,12,.74c7.82,0,15.6-1,23.38-1.66,16.19-1.45,32.24-.15,48.43.79,7.88.45,15.83,1.24,23.73,1.36,4.88.07,9.88-1.71,9.11-6.75C702.28,728.16,705.34,716.22,703.12,701.68Z"/><path class="cls-3" d="M750.1,680.46c-.14-3.29,0-6.71-.43-10-.16-1.31-.23-2.56-1.21-3.58-2.92-3-10-1.79-13.72-2-7.76-.53-3.87-1.44-11.54-2.72-2-.34-10.8-3.39-12.88-3.55C703.34,637.8,696,618,671.42,618c-1.11,0-1.53,1.37-.46,1.66a64.62,64.62,0,0,1,9.26,3.34c-1.86,2-1.62,4.54-1.13,7.14,1.17,6.18,2.93,12.32,4.61,18.37,3.3,11.9,7.21,23.63,11.65,35.16a23.33,23.33,0,0,0,2.73,1.81h50.63S750.28,684.57,750.1,680.46Z"/><path class="cls-3" d="M589,629.14s-9.95,8.12-13.11,20.76S565,662.53,565.28,672.59,571,685.51,571,685.51h19.53Z"/><path class="cls-18" d="M681.57,566.84c-.15-1.17-.58-2.34-1.76-2.44l-.23,0c-2.7.25-2.14,4.93-.62,6.08l.11.07a1,1,0,0,0,.83.19c1.25-.26,1.71-1,1.73-2.3A11.63,11.63,0,0,0,681.57,566.84Z"/><path class="cls-13" d="M683,570.78s5.39,8.22,5.39,10.26-6.7,3.72-6.7,3.72Z"/><path class="cls-32" d="M682.61,589.6c-.23,1.25-.49,2.44-.8,3.57l-.17,0a7.11,7.11,0,0,1-5.87-4.95s1,1,3.89,1.44A12.15,12.15,0,0,0,682.61,589.6Z"/><path class="cls-29" d="M681.23,556.4c-2-.87-5.51,1-6.94,2a1.07,1.07,0,0,0-.36.48l-.13.1c-.79.7.09,1.73.94,1.6,1.75-.28,3.53-.49,5.27-.84,1.18-.25,3.09-1.86,1.69-3A2.05,2.05,0,0,0,681.23,556.4Z"/><path class="cls-29" d="M682.5,536.26c-1.3-3.39-5.16-4.84-7-8-1.43-2.46-1.94-4.94-4.42-6.64-3.09-2.13-7.08-1.88-10.64-1.57-4.49-1.89-9.21-3.29-14.14-2.61-3.69.51-6.67,1.83-10.51,1.89-2.86,0-5.7-.19-8.46.74a9.49,9.49,0,0,0-4.54,3.15c-2.44,3-4.3,5.62-7.33,8.23a18.52,18.52,0,0,0-1.92,1.95,19.61,19.61,0,0,0-6.32,6.82c-3,5.22-7.21,12-7.28,18.27-.07,6.63,4.93,10.53,6.64,16.53s5.11,11.42,8.73,16.45c1.73,2.4,3.69,4.64,5.18,7.2a47.51,47.51,0,0,1,2.17,4.27c.52,1.16.86,2.45,1.3,3.64a1.57,1.57,0,0,0,.4.71,1.64,1.64,0,0,0,1,.32c5.59.67,11.19,1.06,16.81,1.41,3.22.17,6.6.17,9.6-.94,2-4.12,4.93-7.89,6.63-12.24s5.11-9,6.13-13.66a10.66,10.66,0,0,1-2.81-8.92,8.76,8.76,0,0,1,4.06-6.54,4,4,0,0,1,1.49-.58,43.88,43.88,0,0,1,.08-6.79c.59-4.83,4.31-6.1,8-8.15,2.88-1.59,5.32-3.25,6.41-6.06a.88.88,0,0,0,.2-.37C682.73,542.07,683.55,539,682.5,536.26Z"/><path class="cls-32" d="M766,673.71H766l-4.6-.43a.91.91,0,0,1,.17-1.82l4.6.43a.91.91,0,0,1-.09,1.82Z"/><path class="cls-32" d="M768.56,678.38h-.12l-7.9-1a.91.91,0,1,1,.23-1.81l7.9,1a.91.91,0,0,1-.11,1.82Z"/><path class="cls-32" d="M768.55,683.41h-6.17a.92.92,0,0,1,0-1.83h6.17a.92.92,0,1,1,0,1.83Z"/><path class="cls-35" d="M683.7,624.13c-.15-1.09-1.82-.63-1.66.46l3.36,24.09c.16,1.1,1.82.63,1.67-.45Q685.38,636.17,683.7,624.13Z"/><path class="cls-35" d="M661.77,618.31a58.38,58.38,0,0,1-20.36,1.28,57.05,57.05,0,0,1-9.91-2.07c-3-.92-9.55-2.29-10.93-5.38-.45-1-1.94-.14-1.49.87,1.06,2.37,4.17,3.25,6.39,4.17a58.61,58.61,0,0,0,12.78,3.69,60.54,60.54,0,0,0,24-.89C663.31,619.72,662.85,618.06,661.77,618.31Z"/><path class="cls-35" d="M587,654.48a88.47,88.47,0,0,1-3.24-12.82c-.19-1.09-1.86-.63-1.66.45a88.6,88.6,0,0,0,3.24,12.83C585.68,656,587.34,655.54,587,654.48Z"/><path class="cls-20" d="M726.47,772.5a45.4,45.4,0,0,1-13.54,4c-1.08.14-1.09,1.86,0,1.72A47.71,47.71,0,0,0,727.34,774C728.34,773.51,727.47,772,726.47,772.5Z"/><path class="cls-20" d="M638.5,770.55a27.37,27.37,0,0,1-6.86-12.9c-.25-1.08-1.91-.62-1.66.46a29,29,0,0,0,7.3,13.65C638,772.57,639.26,771.35,638.5,770.55Z"/><path class="cls-20" d="M722.62,779.25c-3-.5-6.38,1.72-9.11.4-1-.49-1.87,1-.87,1.48,3.23,1.57,6.23-.77,9.52-.22C723.25,781.09,723.71,779.43,722.62,779.25Z"/><path class="cls-20" d="M675,531.63c-2.43-.36-5-.73-7.35.09a12.15,12.15,0,0,0-5.4,4.43c-.71.91.57,2.2,1.29,1.28a11.14,11.14,0,0,1,4.35-3.83c2.12-.87,4.43-.54,6.63-.22C675.67,533.55,676.17,531.79,675,531.63Z"/><path class="cls-20" d="M665.21,528.14A16.23,16.23,0,0,0,655.07,535c-.65,1,.92,1.88,1.57.91a14.44,14.44,0,0,1,9.06-6.05C666.84,529.65,666.36,527.9,665.21,528.14Z"/><path class="cls-20" d="M628,526.83c-2.4-.39-4.2.82-6,2.38-2,1.76-2.26,5.24-4.49,6.17-5,2.1-8.73,5-8.74,11a.91.91,0,0,0,1.82,0,9.49,9.49,0,0,1,3.32-7.36c1.73-1.49,3.89-1.31,5.65-2.41a3.63,3.63,0,0,0,1.37-1.95c.66-1.51.59-2.57,1.93-3.87,1.14-1.09,3-2.53,4.66-2.26C628.7,528.77,629.19,527,628,526.83Z"/><path class="cls-20" d="M655,587.62l-4.58,10.44c-.46,1.06,1.1,2,1.57.92l4.58-10.44C657.07,587.48,655.5,586.55,655,587.62Z"/><path class="cls-16" d="M721.52,882.54a2.73,2.73,0,0,1-2.68-2.17l-19.24-92.2a2.74,2.74,0,0,1,5.36-1.12l19.25,92.2a2.7,2.7,0,0,1-2.69,3.29Z"/><path class="cls-16" d="M622.21,882.54a2.73,2.73,0,0,1-2.68-2.17l-19.24-92.2a2.74,2.74,0,0,1,5.36-1.12l19.25,92.2a2.74,2.74,0,0,1-2.13,3.24A2.59,2.59,0,0,1,622.21,882.54Z"/><path class="cls-17" d="M582.93,775.41H707.32a3,3,0,0,1,3,3v13.37a0,0,0,0,1,0,0H579.93a0,0,0,0,1,0,0V778.41A3,3,0,0,1,582.93,775.41Z"/><rect class="cls-17" x="579.93" y="657.08" width="115.46" height="77.83" rx="3"/><path class="cls-16" d="M587.69,884.27a2.74,2.74,0,0,1-2.74-2.74V693.7a2.74,2.74,0,1,1,5.48,0V881.53A2.74,2.74,0,0,1,587.69,884.27Z"/><path class="cls-16" d="M687.92,884.27a2.74,2.74,0,0,1-2.74-2.74V693.7a2.74,2.74,0,0,1,5.48,0V881.53A2.74,2.74,0,0,1,687.92,884.27Z"/><path class="cls-32" d="M660.63,609.39a.93.93,0,0,1-.46-.12l-3-1.81a.92.92,0,0,1-.32-1.26.91.91,0,0,1,1.25-.31l3.05,1.81a.91.91,0,0,1-.47,1.69Z"/><path class="cls-19" d="M579.93,700.21a.91.91,0,0,1-.91-.91V687a.92.92,0,0,1,1.83,0V699.3A.92.92,0,0,1,579.93,700.21Z"/><path class="cls-6" d="M240,650c-1.74-3.24-8.67-1.64-11.58-1.64-3.26,0-6.53-.08-9.8,0-1.42,0-3-.08-4.22.9-2.82,2.35-2.26,9.7-2.66,12.89-.27,2.2,3.18,2.18,3.45,0,.31-2.56.09-8.81,2.46-10.34,1.58-1,7.74,0,9.79,0h3.91c.61,0,4.07-.45,4.7-.14,1.13-.48,1.37.08.73,1.67l-.09,1.82c-.13,2.28-.37,4.54-.68,6.8s3,3.11,3.32.92C239.76,659.46,241.64,653.12,240,650Z"/><path class="cls-8" d="M288.13,733.39c-1-4.1-2.2-8.24-2.31-12.5s1.1-5.18.43-9.53c-.51-3.36-2-6.43-3-9.64a49.46,49.46,0,0,1-1.95-10.81c-.55-6.14-.88-22.53-3.34-28.19,0-.28,0-.55,0-.83a.81.81,0,0,0-.83-.83c-.59-.7-1.84.1-1.37,1,.17.32.29.65.44,1-.25,16.35-4.05,39.19-6,55.37-.52,4.25-.91,8.53-1.05,12.82-.07,2.34-.74,6,.23,8.13,1.84,4,1,3.61,4.84,3.75C279.22,743.29,289.91,740.43,288.13,733.39Z"/><path class="cls-8" d="M171.48,663.09c-4.9,2-5.77,6.68-6.65,11.42-1.31,7.08-5.46,22.81-9,28.88-3.38,5.76-4.29,6.66-6.11,13-1.45,5-7.2,10.12-5.09,15.68,1.75,4.63,6.91,7.49,11.28,9.12,3.24,1.21,10.3,3.53,13.11.22,2.51-3-.25-6.9-3.25-8a11.36,11.36,0,0,0-2.77-.56c-3.08-.32-3.33.69-5.27-2.27-1.8-2.74-1.2-3.89-.59-7q.63-3.16,1.39-6.3c2-8.32,4.91-11.11,8.1-19,2.91-7.22,5.37-24.79,4.13-32.65a.67.67,0,0,0-.06-.15,7.41,7.41,0,0,1,1.25-.67C173,664.34,172.51,662.68,171.48,663.09Z"/><path class="cls-6" d="M164.5,743.12s4.59-84.73,6-85.3,107.41.28,108.27,0-2.29,83.31-4.59,85.3S164.5,743.12,164.5,743.12Z"/><path class="cls-4" d="M224.81,688.44c-4,0-47.61-24.28-52.57-27.05l.89-1.6c18.53,10.35,49,26.77,51.68,26.82s33.15-16.47,51.68-26.82l.89,1.6C272.42,664.16,228.81,688.44,224.81,688.44Z"/><path class="cls-4" d="M214.14,681.41s-.18,15,.14,15.08,19.93-.11,20.47,0,.78-14.29.78-14.29Z"/><path class="cls-13" d="M1093.51,281.37c-14-4.7-28.72-7-42.92-10.9s-28.41-8.2-42.55-12.52a.89.89,0,0,0-1.13.46q-2,4.09-3.95,8.2c-.5,1-1.66,2.51-1.43,3.79.47,2.65,5,3.74,7.06,4.74l30.09,14.95c10,4.94,19.85,10.07,30,14.53,6.65,2.92,14,6.35,21.31,3.92a.93.93,0,0,0,.57-.19l.11,0a.81.81,0,0,0,.39-1.21,107.28,107.28,0,0,0,2.94-25.05A.82.82,0,0,0,1093.51,281.37Z"/><path class="cls-13" d="M1266.93,330.38c5.31,13.72,13,26.57,19.08,40s11.87,27.08,17.6,40.72a.89.89,0,0,0,1.08.56l8.82-2.2c1.11-.28,3-.34,3.84-1.33,1.73-2-.36-6.26-.88-8.46l-7.77-32.69c-2.56-10.81-5-21.7-8-32.38-2-7-4.11-14.85-10.62-18.88a1,1,0,0,0-.52-.32l-.09-.06a.8.8,0,0,0-1.18.48,107,107,0,0,0-21.14,13.76A.82.82,0,0,0,1266.93,330.38Z"/><path class="cls-13" d="M1301.76,434.12c.67,1.44,3.76,9.12,6.43,5.8.82-1,.2-2.89,0-4l-1.53-8.94c6.12,2.32,10.11,10.05,13.83,15a47.91,47.91,0,0,0,5.09,6.34c.9.83,2.21,2.12,3.53,2.2,1.81.1,1.24-.75,2.38-1.58.86-.63,1.94-.82,2.78-1.59a5.37,5.37,0,0,0,1.72-5.5c-1.4-4.79-4.38-8.82-6.87-13.1,1,1,4.51,5.24,6,4.11,1.27-1,.32-2.11-.26-3.22-.76-1.46-1.57-2.9-2.38-4.33-1.83-3.22-3.7-6.41-5.64-9.56a82,82,0,0,0-8.61-11.93.64.64,0,0,0-.39-.43c-.76-.83-1.54-1.64-2.36-2.42s-2,.5-1.18,1.26c.31.29.57.6.86.89a56,56,0,0,0-11.2.33,21.49,21.49,0,0,0,.19-8.5c-.22-1.08-1.86-.56-1.64.51,1.51,7.53-3.08,14.53-3.74,21.92A32.81,32.81,0,0,0,1301.76,434.12Z"/><path class="cls-32" d="M1330,448.33a.91.91,0,0,1-.78-.44c0-.09-5.25-8.68-7.46-11.77a45.51,45.51,0,0,0-3.58-4.52.92.92,0,0,1,1.32-1.27,47.1,47.1,0,0,1,3.75,4.73c2.25,3.15,7.32,11.53,7.53,11.88a.91.91,0,0,1-.31,1.26A.88.88,0,0,1,1330,448.33Z"/><path class="cls-32" d="M1333.75,444.43a.9.9,0,0,1-.75-.4l-11-16.34a.92.92,0,0,1,1.52-1l11,16.34a.91.91,0,0,1-.76,1.42Z"/><path class="cls-32" d="M1328.8,427.89a.92.92,0,0,1-.71-.33l-3.47-4.19a.92.92,0,0,1,.12-1.29.91.91,0,0,1,1.28.12l3.48,4.2a.91.91,0,0,1-.12,1.28A.92.92,0,0,1,1328.8,427.89Z"/><path class="cls-13" d="M1231.12,673.4s3.66,38.63,3.87,42.72,5.39,19.81,7.33,21,21.54-1,22.61-1.39-8.47-22.91-9.55-26.79-1.43-37.48-1.43-37.48Z"/><path class="cls-14" d="M1237.3,725.55s10.33,7,17.8,6.8,5.82-8.84,5.82-8.84,5.68,11.28,6,14.87-.58,14.51-1.16,15.23-16.08-3.59-20.68-8.76S1237.3,725.55,1237.3,725.55Z"/><path class="cls-13" d="M1147.83,677.28s2,22.69,0,28.43-28.33,21-28.33,21,49.58-3,50.15-6.12,0-44.65,0-44.65Z"/><path class="cls-13" d="M1166.92,116.3c-.21,1.22,1.24,34.54,5.3,46.32,3.61,10.55,9,14.89,14.32,17.37,15.12,7.06,26.89-.24,35.69-12.85a.89.89,0,0,0,.57-.38l.82-1.29s6-17.81,7-25.68a103.45,103.45,0,0,0,1-18.86c-.7-12.44-4.66-25.48-15.13-33.14-8.06-5.91-17.75-5.93-27.16-3.41a21.55,21.55,0,0,0-8.65,4.32C1172.76,95.47,1168.66,106.09,1166.92,116.3Z"/><path class="cls-13" d="M1223.43,159.42l-.21,23.72a18.48,18.48,0,0,1-13.17,17.54l-2.25.67a18.49,18.49,0,0,1-17-3.42h0c-4.32-3.56-4-7.8-3.93-13.39l-1.33-20.85Z"/><path class="cls-18" d="M1200.43,133.88c.09-1,.42-2,1.29-2.17,2.32-.55,3,3.51,2.94,4.84a2.67,2.67,0,0,1-1.2,2.1,1.66,1.66,0,0,1-2.1-.61,4.1,4.1,0,0,1-.83-2A9,9,0,0,1,1200.43,133.88Z"/><path class="cls-18" d="M1173,134c0-1,.3-2,1.16-2.25,2.28-.69,3.25,3.32,3.23,4.65a2.71,2.71,0,0,1-1.06,2.18,1.68,1.68,0,0,1-2.14-.48,4.26,4.26,0,0,1-1-1.94A9.08,9.08,0,0,1,1173,134Z"/><path class="cls-32" d="M1186.82,157.32a.92.92,0,0,1-.42-.1c-1-.54-4.42-2.46-4.56-4.48-.11-1.75,1.44-8.69,1.62-9.47a.91.91,0,0,1,1.09-.69.9.9,0,0,1,.69,1.09c-.65,2.87-1.65,7.83-1.57,9,0,.66,1.92,2.11,3.58,3a.91.91,0,0,1-.43,1.72Z"/><path class="cls-6" d="M1181.53,160.31a32.9,32.9,0,0,0,8.2.33,42,42,0,0,0,8.51-1.26s-1.43,4.06-7.5,5.18S1181.53,160.31,1181.53,160.31Z"/><path class="cls-6" d="M1154.11,206.88a36.33,36.33,0,0,0-6-8.39c-1.5-1.47-4.19-7.88-6.09-7.8-4.31.19-14.15,10.36-16.6,13.43a99.68,99.68,0,0,0-12.6,20.88,119.77,119.77,0,0,1-15.57,26c-4.39,5.46-9,10.75-13.23,16.32a27.57,27.57,0,0,0-8.38-3.27c-.82,2.75-1.81,5.48-2.9,8.23a89,89,0,0,0-4,11.74c-1.25,5.23-1,10.2-.38,15.49.43,3.88.93,7.75.31,11.57,3.88.56,8.72-.21,12.25,1.17,3.32,1.3,5.42,4.33,8.92,5.31s7.26.71,10.8.71c6.91,0,14.11-.37,20.6-3,6.68-2.67,11.26-7.61,14.94-13.66A183.3,183.3,0,0,0,1148,277.81,211.33,211.33,0,0,0,1156.5,254c2.19-7.59,4.62-15.65,5.06-23.59C1162,222,1158.09,214.1,1154.11,206.88Z"/><path class="cls-6" d="M1256.48,329.9c1.92,3.87,1.09,7.88,2.43,11.79a9.78,9.78,0,0,0,1,2.1c6.67-2,14.82-1.83,20.83-2.4,10.13-.95,15.75-8,24.14-12.56a18.36,18.36,0,0,0-.66-2.07c-1.84-4.62-6.12-6.75-6.12-12.25,0-4.08.55-8.08.28-12.18-.61-8.9-3.59-16.71-6.84-24.91-6.65-16.81-3-36-7.78-53.39-3.63-13.34-11.89-25.84-25.15-31.06-.43-.17-1-.31-1.31,0-.59.54.22,1.44.93,1.82.56.29,10.26,6.16,10,6.3-11,6.9-22.48,15.23-28,27.25-3,6.62-5.27,13.63-7.8,20.44-2.26,6.11-5.75,12.72-5.19,19.4.5,6,3.83,11.18,6.66,16.3,3.74,6.76,5.77,14,8.33,21.26a59.4,59.4,0,0,0,9,16.65A48.19,48.19,0,0,1,1256.48,329.9Z"/><path class="cls-29" d="M1240.63,107.91c-2.22-2.25-3.71-3.81-3.76-7.11-.07-5.46,1.92-12.2-3.72-15.76a31.92,31.92,0,0,1-7.35-6.22c-2.28-2.71-3.54-6-5.84-8.7a8.76,8.76,0,0,0-6.24-3.46c-3.48-.27-6.51,1.26-9.2,3.26-3.78-1.2-9.91-.66-11.73-.76-4.21-.23-7.22-3.57-11.46-3.24-3.15.25-5.71,2-8,4a14.84,14.84,0,0,0-4.51,1c-3.41,1.46-4.16,5.06-4.28,8.6a23.4,23.4,0,0,0-8.47,7.95c-1.49,2.52-1.12,6-2.73,8.49-1.91,3-5.87,3.93-7.73,7.13-1.39,2.41-2.45,5.7-1.61,8.48s3.71,4,5.46,6.2c2,2.56,1.41,4.5,1.2,7.4a6.67,6.67,0,0,0,.52,4c1.28,2.18,4,2.93,6.35,2.6,5-.69,7.44-4.91,9.12-9.18.9-2.29,1.56-4.67,2.51-6.93,1.48-3.52,2.34-2.83,5.69-2.92a9,9,0,0,0,4.11-1.16c2.2-1.22,3.19-3.08,4.92-4.71l.78-1.2c2-1,3.16-.7,3.41.9.33.27.48.92.8,1.28,3.42,3.83,7.93,1.75,11.87-1.68.85,3,2.6,5.6,5.52,6,1,.15,1.58-.43,2.52-.53,5.29-.58,5.94,4,5.76,8.24-.1,2.33,0,.5,1.44,2.08.58,1.12.78,2.27,1.23,3.26a6.17,6.17,0,0,1,5.39-.41c2.9,1.18,3.9,4.38,4,7.25.09,4.29-1.26,9.87-4.79,12.47.35,2.23,1.7,21.23,1.7,21.23l6.06-14.24c2.33-5.48,5.2-10.75,7.1-16.4,1.49-4.44,1.81-8.8,3.5-13.16C1241.87,117.37,1244.72,112.07,1240.63,107.91Z"/><path class="cls-17" d="M1266.17,619.77c.74-10.18,1.13-20.44,0-30.6-1.1-10-2-80.55-2-91,.07-21-.69-42.06-1.79-63.07-1.07-20.25-2.24-40.55-3.89-60.78-.73-8.63-4.36-18.88-8.71-28.55-.91-2-1.86-4-2.82-6-2.26-4.65-4.59-9-6.69-12.89-2.58-4.74-.5-8.1-4.07-10.65a9.07,9.07,0,0,0-1.58-.89,2.67,2.67,0,0,0-.36-.14c-2.92-1.14-5.79.38-8.55,1.43-3.65,1.41-7.32,2.84-10.89,4.5q-2.53,1.15-5,2.48c-1.34.72-2.65,1.48-3.95,2.27-.68.44-1.37.88-2.05,1.35a47.22,47.22,0,0,0-9.46,8.41,51.94,51.94,0,0,0-3.82,5.18c-.69,1-1.35,2.09-2,3.18s-1.25,2.2-1.84,3.32c-.31.59-.62,1.17-.91,1.76-1.55,3-3,6.13-4.42,9.2-8.89,19-17.16,39.62-16.19,61,.5,11,4,24.06,12.59,31.31a20.57,20.57,0,0,0,1.64,1.28,22.54,22.54,0,0,0,5.6,2.91c.4,1.64.76,3.27,1.19,4.91.62,2.36,1.29,4.69,2,7,2.33,7.88,4.9,15.68,6.88,23.66,2.82,11.34,3.27,22.54,3.74,34.16.84,21,16.25,104.13,18.87,125.93.65,5.45,1.48,10.87,2.62,16.23.49,2.33.77,5.88,1.89,8.46,3.22.07,7,.28,11,.47l1.74.09c6.87.29,14.28.41,20.62-.54.57-.07,1.14-.15,1.69-.26a32,32,0,0,0,5.4-1.44c1.31-.49,2.58-1,3.84-1.56C1265.55,655.12,1264.93,636.73,1266.17,619.77Z"/><path class="cls-17" d="M1212.11,327a86.35,86.35,0,0,1-2.64,15.08c-.43,1.72-.77,3-.91,3.55-.26,1.08-.54,2.17-.81,3.26-.85,3.36-1.78,6.68-2.76,10-.4,1.34-.79,2.69-1.21,4-2.22,7.39-4.61,14.75-6.8,22.16-7.19,24.38-10.46,49.15-8.86,74.55.05.86.1,3.38.12,7.13.21,25.66-.27,109.07-2.79,118.94a100.74,100.74,0,0,0-1.26,10.13v0c-.38,3.89-.77,8.63-1.19,13.92,0,0,0,0,0,0s0,0,0,0c-1.74,22.13-3.67,53.6-4.24,70a.88.88,0,0,1-.88.87c-3.65.11-8.2.19-13.06.3l-1.76,0c-7.11.14-14.78.28-21.35.42l-1.72.05c-2.2,0-4.24.08-6.07.14a.94.94,0,0,1-.89-.9,805.49,805.49,0,0,1-6.5-81.67c-.34-12.11-.41-24.22-1.32-36.3s-2.71-24-4.31-36c-3.1-23.35,0-46.58-.64-70.13-.62-23.23-.12-61.09,5.46-83.77,4.07-16.58,7.57-23.93,13.31-35.6.94-1.88,1.93-3.9,3-6.07.87-1.75,1.78-3.65,2.74-5.67a.65.65,0,0,1-.2,0,.68.68,0,0,1-.67-.29q.46-.75,1-1.5l.81-.05a.81.81,0,0,1,1.28-.09c2-.14,4-.26,6-.38l1.85-.1c4.11-.24,8.22-.43,12.33-.6l1.8-.06c7.15-.27,14.28-.44,21.43-.51.57,0,1.14,0,1.71,0,4.24-.06,8.48,0,12.73,0l1.78,0c.69,0,1.36,0,2,0,0,0,0-.09,0-.14.43.6.86,1.21,1.26,1.81C1210.64,324.7,1211.38,325.82,1212.11,327Z"/><path class="cls-36" d="M1157.38,315.16c-.9,2.62-1.78,5.25-2.6,7.89-7.26,22.81-12.08,46.34-15.53,70s-6.72,48.22-6.62,72.32c0,12.05,1.66,24,2.64,36a329,329,0,0,1,.46,36.22,987.15,987.15,0,0,0,6,143.83l-1.72.05q-4.68-39.71-6-79.7c-.83-24.73-.14-49.36.29-74.08.43-24.16-4.13-48-3.15-72.21,1-23.66,4-47.47,7.7-70.86a426.74,426.74,0,0,1,14.13-61.45c.9-2.82,1.83-5.65,2.79-8.46C1156.09,313.66,1157.74,314.1,1157.38,315.16Z"/><path class="cls-36" d="M1169.89,318.26c-.33,1.38-.67,2.75-1,4.13A635.24,635.24,0,0,0,1152,485.84c.69,26.45,3.62,52.54,6.8,78.79a296.18,296.18,0,0,1,2.35,39.82c-.19,13.32-1,26.64-.73,40,.26,12.41,2.07,24.42,4.43,36.54l-1.76,0c-.37-1.79-.74-3.57-1.08-5.36a206.35,206.35,0,0,1-3.31-42.84c.21-13.33,1-26.66.67-40s-2.07-26.52-3.75-39.72a662.51,662.51,0,0,1-5.55-78.74,640.71,640.71,0,0,1,17.07-151.88c.38-1.56.75-3.11,1.12-4.66C1168.49,316.71,1170.15,317.17,1169.89,318.26Z"/><path class="cls-36" d="M1192.05,321.88a111.58,111.58,0,0,1-1.62,12.28c-2.31,12.08-4.51,23.85-5.39,36.14-1.61,22.3-3,44.61-4.52,66.91-1.5,22-3.51,44.1-4.19,66.18-.94,31,5.79,61.62,7.86,92.41v0c-.38,3.89-.77,8.63-1.19,13.92-.24-16.52-2.38-33-4.48-49.47-2.77-21.8-4.72-43.36-3.55-65.35s2.9-44.15,4.4-66.2,2.51-44.43,4.6-66.54c1-9.92,3.13-19.5,5-29.27a104,104,0,0,0,1.41-11,233.59,233.59,0,0,0,.3-24,.86.86,0,0,1,1.72,0A230.67,230.67,0,0,1,1192.05,321.88Z"/><path class="cls-36" d="M1235,675.73l-1.74-.09Q1228.9,653,1226.7,630c-2.56-26.81-2.31-53.8-5.18-80.59-2.81-26.14-7.67-52-10.38-78.15-2.72-26.35-.7-52.75-2.81-79.1-.79-9.87-3-19.5-4.55-29.24-.53-3.31-1-6.62-1.3-10a100.6,100.6,0,0,1,1.37-25.71q.42-2.69.93-5.34c.45-2.45.93-4.9,1.42-7.33.2-1.08,1.88-.62,1.65.45-.46,2.33-.89,4.62-1.29,6.91-.24,1.33-.45,2.65-.66,4-1.7,11-2.39,21.72-.91,33,.16,1.17.33,2.38.54,3.56,2.37,13.89,4.72,27.37,5.15,41.5.39,13,0,25.92.29,38.88s1.47,25.66,3,38.42c3.19,26.08,8,52,10.21,78.17,2.17,25.68,2.08,51.49,4.87,77.13Q1231.26,656.24,1235,675.73Z"/><path class="cls-36" d="M1257.34,674.93c-.55.11-1.12.19-1.69.26.85-21-7.35-42.27-9.3-63.07-1.26-13.41-.54-26.86-1-40.29s-2.2-26.74-3.86-40.05a525.73,525.73,0,0,1-3.91-77.11c1-46.42,5.62-93.64-3.27-139.48-1-5.14-2.14-10.24-3.5-15.32a.86.86,0,0,1,1.65-.45q2.22,8.35,3.79,16.8c4.24,22.46,5.35,45.39,5.17,68.26-.19,26.14-1.93,52.23-2.25,78.36-.35,26.6,2.12,52.56,5.29,78.94a358.93,358.93,0,0,1,2.8,40.13c.11,14,0,27.85,2.4,41.65C1252.57,640.4,1257.89,657.77,1257.34,674.93Z"/><path class="cls-6" d="M1271,204.34c-1.93-6.7-7.59-10.14-14-11.8-9.14-2.36-19.17-7.54-28.54-7.81q-15.84-.47-31.68-.92a95.74,95.74,0,0,0-15.61.45c-5.7.77-11.28,2.21-17,3-7.81,1.07-23.38.63-28.36,8-2.39,3.54-5.58,7.67-5,12.31-.52,7.76.18,15.78.64,23.53,1.13,18.94,10.45,38.21,3.4,56.11-14.75,37.48,0,38.27,0,38.27s33.5,12,47.56,11.58c11-.32,22.07-1.38,33-2.76,5.37-.68,11.53-2.56,16.92-2.36,4.78.18,13.74,7.41,18.09,5.28,3.16-1.54,1.9-6.83,1.45-9.47-1.1-6.47,6.47-15.92,10.34-22.15,4.4-7.1-5.37-13.33-3.17-21.5,2.44-9,2.81-16.46,3.75-25.7,1-9.47,3.23-14.64,5.57-23.83C1270.47,226.32,1273.4,212.8,1271,204.34Z"/><path class="cls-13" d="M1186.82,183.7s-2.7,14.24-1.33,20.9-.78,9.62-.74,15,1.52,9.33,3,13.32,1,10.66,1,10.66,5.48-12.43,11.62-18.21,7.48-11.25,11-15.84A152.55,152.55,0,0,0,1222,193.94a14.81,14.81,0,0,0,1.48-9.36l-20.89-2.84Z"/><path class="cls-20" d="M1188.81,94.18a7.19,7.19,0,0,0-6.87.75,9.14,9.14,0,0,0-2.16,2.71c-1.3,2-1.78,1.81-4.12,2.1a13.6,13.6,0,0,0-11.37,10.35.86.86,0,0,0,1.66.46,11.73,11.73,0,0,1,5.23-7.38c2.7-1.7,4.9-1.1,7.72-1.76a3.1,3.1,0,0,0,1.53-.74c.51-.44.35-.93.62-1.47,1.51-3,3.82-4.55,7.3-3.35C1189.4,96.21,1189.85,94.54,1188.81,94.18Z"/><path class="cls-20" d="M1190.3,88.6c-2-1.48-3.65-2.19-6.11-1.73a14.58,14.58,0,0,0-6.74,2.75c-.86.7.36,1.91,1.22,1.22a12,12,0,0,1,5.26-2.15c2.35-.52,3.68,0,5.5,1.4C1190.32,90.75,1191.18,89.26,1190.3,88.6Z"/><path class="cls-20" d="M1223.44,113.05c-.5-1.17-1.33-1.59-2-2.56-2-2.68-1-3.47-1.12-5.78-.27-5.25-1.15-7.84-6.64-8.9-1.09-.21-1.55,1.45-.46,1.66a9.36,9.36,0,0,1,4.68,2.33c1.48,1.64.62,4.85.4,6.79a6.89,6.89,0,0,0-.1,2.82,4.31,4.31,0,0,0,1.39,1.83c2.44,2.33,2.87,4.53,2.58,7.69-.11,1.11,1.62,1.1,1.72,0C1224,117,1224.23,114.88,1223.44,113.05Z"/><polygon class="cls-4" points="1224.65 145.75 1214.97 148.1 1214.49 145.69 1224.06 143.71 1224.65 145.75"/><path class="cls-6" d="M1223.6,159.56a.91.91,0,0,1-.5-.17c-.85-.58-3.69-4.79-3.14-6.3.29-.8.79-7.92,1-12.23a.64.64,0,0,1,1.11-.39c1,1,4,4.51,4,5.94,0,.11-1.31,12.28-2.09,13A.64.64,0,0,1,1223.6,159.56Zm-1.42-17.08c-.2,3.34-.65,10-1,11-.15.61,1.25,3.08,2.14,4.24.52-2.63,1.58-10.33,1.58-11.35C1224.88,145.91,1223.62,144.16,1222.18,142.48Z"/><path class="cls-14" d="M1001.65,264.38l-100.29-81.9a1.72,1.72,0,0,1-.24-2.43h0a1.71,1.71,0,0,1,2.42-.24l100.29,81.9a1.72,1.72,0,0,1,.25,2.42h0A1.73,1.73,0,0,1,1001.65,264.38Z"/><path class="cls-13" d="M1020.68,267.15a4.1,4.1,0,0,0-.68-.47c-5.26-3.33-8-9.4-11.76-14.35a10.12,10.12,0,0,0-3-2.89,8.09,8.09,0,0,0-3.85-.81c-4.69,0-9.05,2.56-13.73,2.92a30.31,30.31,0,0,0-4.58.36c-2.32.55-4.66,2.94-2.79,5.27.57.7,1.32,1.23,1.91,1.92,1.51,1.79,1.68,4.3,1.94,6.63s.87,4.89,2.83,6.16a8.19,8.19,0,0,0,3.26,1,76.06,76.06,0,0,0,17.58.72,1.36,1.36,0,0,0,1-.4.91.91,0,0,0-.42-1.26,2.3,2.3,0,0,0-1.47-.11,84,84,0,0,0,6.77-8.63,25.22,25.22,0,0,0,6,5.23,1.23,1.23,0,0,0,1.14.25.85.85,0,0,0,.23-1.17A1.75,1.75,0,0,0,1020.68,267.15Z"/><path class="cls-32" d="M992.55,257.09a27.67,27.67,0,0,1-4.56-.35c-5.24-.9-4.82-4.16-4.8-4.3a.9.9,0,0,1,1-.77.92.92,0,0,1,.77,1c0,.1-.06,1.68,3.29,2.25a33.83,33.83,0,0,0,9.08,0,.91.91,0,1,1,.28,1.8A37.15,37.15,0,0,1,992.55,257.09Z"/><path class="cls-32" d="M996.86,273.55a1,1,0,0,1-.32-.06.9.9,0,0,1-.53-1.17s1.49-4.05.63-6.73a11.51,11.51,0,0,0-1.31-2.72,4.22,4.22,0,0,1-.88-2.94,4.25,4.25,0,0,0-.7-2.6.91.91,0,1,1,1.49-1.05,6,6,0,0,1,1,3.87c-.07.6.13,1,.63,1.76a13.52,13.52,0,0,1,1.49,3.13c1,3.28-.59,7.73-.66,7.92A.91.91,0,0,1,996.86,273.55Z"/><path class="cls-32" d="M993.63,261.27H984.8a.91.91,0,0,1,0-1.82h8.83a.91.91,0,0,1,0,1.82Z"/><path class="cls-32" d="M995.25,266.12h-9.37a.92.92,0,1,1,0-1.83h9.37a.92.92,0,0,1,0,1.83Z"/><path class="cls-32" d="M996.16,270.64h-8.88a.91.91,0,1,1,0-1.82h8.88a.91.91,0,1,1,0,1.82Z"/><path class="cls-4" d="M1130.67,241.87a64.18,64.18,0,0,1-8-22.68c-.17-1.09-1.83-.63-1.66.46a64.62,64.62,0,0,0,7,21.15c2.32,4.27,5.08,8,5.2,13.1.09,4-1.14,8-1.85,11.89-1.37,7.58,1,14.88-.45,22.45-1.22,6.16-3.12,12-.43,18.05.46,1,1.94.14,1.49-.87-3.29-7.38,1.12-15,1.42-22.52.16-4-1-7.86-1-11.84s1.35-8,2-12C1135.62,252.3,1134,247.69,1130.67,241.87Z"/><path class="cls-4" d="M1155.27,318.93a38.73,38.73,0,0,1-14.44-25.33c-.15-1.09-1.81-.63-1.66.46a40.09,40.09,0,0,0,14.88,26.09C1154.91,320.83,1156.14,319.62,1155.27,318.93Z"/><path class="cls-4" d="M1187.59,256.53c-2.59-5.81-5.22-11.61-7.76-17.44-1.64-3.76-3.19-7.43-3.46-11.58-.21-3.31.31-6.63-.11-9.94-.62-4.86-3.48-8.74-5.89-12.86-1.78-3-3.81-6.61-2.26-10.05,1.41-3.13,5.62-5,8.49-6.82.93-.6.07-2.09-.87-1.49-3.75,2.42-10,4.8-10.12,10-.11,5.95,4.79,10.92,7.22,15.94,2.16,4.46,1.71,8.79,1.78,13.56a28.54,28.54,0,0,0,2.1,10.27c2.83,7.19,6.25,14.2,9.39,21.26C1186.55,258.41,1188,257.54,1187.59,256.53Z"/><path class="cls-4" d="M1186.4,296.51c-.46-3.37-1.61-6.63-1.77-10a34.57,34.57,0,0,1,1.42-9.74c1.19-4.89,2.31-9.48,1.34-14.51-.21-1.08-1.87-.62-1.66.46,1.29,6.66-1.62,12.79-2.55,19.27-.81,5.69,1.19,10.64,1.68,16.22,1,11.21-4.3,22.08-1,33.2.32,1.06,2,.61,1.66-.45C1182.12,319.48,1188,308.07,1186.4,296.51Z"/><path class="cls-4" d="M1236.75,200c-1.87-3.58-4.55-6.93-6.77-10.3-.61-.93-2.1-.06-1.49.87q2.65,4,5.32,8.08c1.34,2,2.9,3.76,1.59,6.71-.61,1.37-2.17,2.63-3.28,3.64-4.7,4.26-9.46,8.44-14,12.85a360.93,360.93,0,0,0-25.88,27.88c-.71.85.51,2.07,1.22,1.22a360.94,360.94,0,0,1,31.64-33.33c2.72-2.51,5.54-4.91,8.27-7.4,1.61-1.48,3.46-3.12,4.13-5.3A6.17,6.17,0,0,0,1236.75,200Z"/><path class="cls-4" d="M1279.84,248.39a126.31,126.31,0,0,1-8.09,19.42c-3.35,6.21-8,11.43-11.69,17.4-6.38,10.34-7.9,22.62-9.32,34.45-.13,1.1,1.59,1.09,1.73,0,1.6-13.38,3.67-26.31,11.73-37.49,3.79-5.25,7.55-10.35,10.43-16.18a140.86,140.86,0,0,0,6.87-17.14C1281.86,247.79,1280.19,247.34,1279.84,248.39Z"/><path class="cls-4" d="M1282.33,274l-21.17,19.32c-.82.75.4,2,1.22,1.22l21.16-19.33C1284.37,274.46,1283.14,273.25,1282.33,274Z"/><path class="cls-4" d="M1083.35,268.44V299a.86.86,0,0,0,1.72,0V268.44A.86.86,0,0,0,1083.35,268.44Z"/><path class="cls-29" d="M1181.87,123.92c-2.83-3.41-10.22-2.22-13.27.07a.9.9,0,0,0,.28,1.61c2.88.69,5.93-.19,8.87,0a14.48,14.48,0,0,0,3.06.33C1181.94,125.76,1182.53,124.72,1181.87,123.92Z"/><path class="cls-29" d="M1198,126.68a15.11,15.11,0,0,0,3.07-.17c3-.05,6,1,8.86.44a.91.91,0,0,0,.36-1.6c-2.93-2.43-10.25-4-13.25-.73C1196.31,125.39,1196.85,126.45,1198,126.68Z"/><path class="cls-14" d="M1169.91,717.78s-15.55,3-25.21,5-25.2,4-25.2,4-11.6,7.39-11.17,8.92,28.76-1.27,34.68-2.13,26.33-2.26,26.9-3.56S1169.91,717.78,1169.91,717.78Z"/><path class="cls-29" d="M1249.81,345.78a243.58,243.58,0,0,1-42.06,3.07c-4.41-.07-9-.3-13.49-.71-2.5-.23-5-.52-7.5-.83A348.16,348.16,0,0,1,1139,337.18c.94-1.88,1.93-3.9,3-6.07,8.43,2.16,31.21,7.74,48.55,9.7,1.57.18,3.1.33,4.56.44,5.19.39,10,.65,14.34.79,19.34.62,31.23-1,37.52-2.28C1248,341.73,1248.9,343.74,1249.81,345.78Z"/><path class="cls-29" d="M1249.73,401.7c-.27-7.44-2.48-14.61-4.48-21.72s-3-14.37-4.5-21.65c-.84-4.2-2.4-12.31-6.71-14.34a.91.91,0,0,0-1,.13,2.75,2.75,0,0,1-.26.22.81.81,0,0,0-.91,1.05,45.14,45.14,0,0,1,2,18,25.9,25.9,0,0,0,2.62,14c2.82,5.87,4.72,10.9,4.6,17.55-.09,5.39-.61,10.68.41,16a.87.87,0,0,0,1.44.38c1.61-1.8,4.34-1.65,5.87-3.49C1250.12,406.26,1249.8,403.72,1249.73,401.7Z"/><path class="cls-14" d="M1201.34,143.71a28,28,0,0,1-5-.43c-4.57-.85-6-10.23-6.15-11.3l-.1-.72.68-.26a39.47,39.47,0,0,1,12-2c7.78-.23,9.92.81,10.39,1.14a1.17,1.17,0,0,1,.46,1c0,1.44-1.65,8.92-4,10.82C1207.93,143.21,1204.58,143.71,1201.34,143.71Zm-9.26-11.24c.61,3.54,2.24,8.59,4.55,9,4,.73,10,.45,11.77-1,1.54-1.25,3.16-7.27,3.32-9-.78-.28-3.13-.85-9-.68A40.72,40.72,0,0,0,1192.08,132.47Z"/><path class="cls-14" d="M1174.45,143.53c-2.85,0-5.8-.51-7.23-1.83-2-1.88-3.52-9.41-3.47-10.8a1.2,1.2,0,0,1,.4-.91,7.51,7.51,0,0,1,4.11-1.09l.42,0a37.29,37.29,0,0,1,9.85.52c5.88,1.1,5.81,1.67,5.73,2.4h0c-.22,1.74-1.47,10.47-5.4,11.31A21.54,21.54,0,0,1,1174.45,143.53Zm-8.87-12.3c.08,1.7,1.57,7.9,2.88,9.13,1.53,1.42,6.64,1.68,10,1,1.86-.4,3.34-5.4,3.88-9.15-.93-.3-3-.78-4.17-1a35.79,35.79,0,0,0-9.37-.49l-.44,0A8.15,8.15,0,0,0,1165.58,131.23Zm17.77.45h0Z"/><path class="cls-14" d="M1191.06,132.77h-.15a20,20,0,0,0-3.67-.23c-2,.07-3.9.07-3.89.07a.92.92,0,0,1,0-1.83h.18c.52,0,2,0,3.64-.06a22.92,22.92,0,0,1,4,.24.92.92,0,0,1-.14,1.82Z"/><path class="cls-14" d="M1212.58,132.77a.88.88,0,0,1-.62-.25.91.91,0,0,1,0-1.29l8-8.49a.91.91,0,0,1,1.29,0,.92.92,0,0,1,0,1.29l-8,8.49A.92.92,0,0,1,1212.58,132.77Z"/><path class="cls-32" d="M1191.44,181.69a23.15,23.15,0,0,1-2.77-.14.91.91,0,0,1,.23-1.81c.1,0,11,1.26,18.57-5.09,4.89-4.1,8.24-11.47,8.27-11.54a.92.92,0,0,1,1.21-.46.91.91,0,0,1,.45,1.21c-.14.32-3.55,7.82-8.76,12.19C1202.82,180.94,1195.4,181.69,1191.44,181.69Z"/><path class="cls-4" d="M1168.59,149.86a32.82,32.82,0,0,0,.65,9.09c.8,3.33,1.82,7.13,2.71,10.34a8.39,8.39,0,0,0,9.22,6.08c3.15-.43,7.12-.94,11.43-1.43,10.27-1.18,28.46-9.31,28.46-9.31l-3.3-16.35a6,6,0,0,0-7.66-4.7c-6.35,2.24-16.13,5.45-22.49,6.37A68.23,68.23,0,0,1,1168.59,149.86Z"/><polygon class="cls-4" points="1221.01 164.65 1223.26 163.44 1223.12 161.42 1220.52 162.7 1221.01 164.65"/><g class="cls-37"><path d="M1182.45,160.45c-7.59,0-11.53-3-11.75-3.17a.92.92,0,0,1,1.13-1.44c.06,0,6.39,4.8,18.5,1.74,7-1.77,19-6.65,19.09-6.7a.92.92,0,0,1,.7,1.7c-.5.2-12.18,5-19.34,6.77A33.74,33.74,0,0,1,1182.45,160.45Z"/></g><g class="cls-37"><path d="M1184.29,167.91a24,24,0,0,1-12.27-3,.91.91,0,0,1-.28-1.26.92.92,0,0,1,1.26-.28c.08,0,7.43,4.61,18.58,1.79,7-1.77,19-6.65,19.09-6.69a.91.91,0,0,1,1.19.49.92.92,0,0,1-.5,1.2c-.49.2-12.18,5-19.34,6.77A31.25,31.25,0,0,1,1184.29,167.91Z"/></g><path class="cls-28" d="M692.76,582.32s-.1,8.56-2.3,12.56a39.92,39.92,0,0,1-6.07,7.79s-12.64-7.1-18.13-12.6l-.17-.16a10.89,10.89,0,0,1-.34-15l4.93-5.43Z"/><polygon class="cls-28" points="666.11 562.71 671.25 570.61 669.69 573.01 664.02 564.58 666.11 562.71"/></svg>