<?xml version="1.0" encoding="utf-8"?>
<!-- Generator: Adobe Illustrator 25.2.0, SVG Export Plug-In . SVG Version: 6.00 Build 0)  -->
<svg version="1.1" id="Capa_1" xmlns="http://www.w3.org/2000/svg" xmlns:xlink="http://www.w3.org/1999/xlink" x="0px" y="0px"
	 viewBox="0 0 687.56 298.97" style="enable-background:new 0 0 687.56 298.97;" xml:space="preserve">
<style type="text/css">
	.st0{fill:#FFFFFF;}
</style>
<g>
	<g>
		<path d="M43.06,69.86v21.89h53.28v32.48H43.06v40.87H0V37.38h103.81v32.48H43.06z"/>
		<path d="M222.82,65.3v99.8H183.6v-9.49c-7.48,7.66-17.52,11.31-28.28,11.31c-23.9,0-41.96-14.05-41.96-46.52V65.3h41.23v47.98
			c0,14.23,4.93,18.97,12.95,18.97c7.12,0,14.05-5.29,14.05-20.07V65.3H222.82z"/>
		<path d="M312.84,63.47v36.49c-3.65-0.55-6.2-0.73-9.12-0.73c-12.41,0-21.16,5.66-21.16,21.53v44.33h-41.23V65.3h39.23v10.76
			C287.85,67.67,298.98,63.47,312.84,63.47z"/>
		<path d="M435.6,65.3v79.91c0,38.68-22.62,57.11-60.76,57.11c-19.7,0-37.58-4.2-49.99-12.41l13.87-28.1
			c7.85,6.02,21.16,9.85,31.93,9.85c16.97,0,23.72-7.48,23.72-20.8v-1.82c-6.2,7.12-15.33,10.58-27.55,10.58
			c-25.36,0-47.98-18.61-47.98-48.17s22.62-47.98,47.98-47.98c13.68,0,23.35,4.2,29.56,13.14V65.3H435.6z M394.73,111.46
			c0-9.67-7.3-15.87-16.97-15.87s-17.15,6.2-17.15,15.87s7.48,16.06,17.15,16.06S394.73,121.13,394.73,111.46z"/>
		<path class="st0" d="M447.75,115.1c0-30.29,24.27-51.63,58.02-51.63c33.94,0,58.02,21.35,58.02,51.63s-24.08,51.82-58.02,51.82
			C472.01,166.92,447.75,145.39,447.75,115.1z M522.01,115.1c0-12.95-7.12-19.52-16.24-19.52c-9.12,0-16.24,6.57-16.24,19.52
			c0,12.95,7.12,19.7,16.24,19.7C514.89,134.81,522.01,128.06,522.01,115.1z"/>
		<path class="st0" d="M687.56,108.17v56.92h-41.23v-49.81c0-12.41-4.74-17.15-12.22-17.15c-8.39,0-15.51,5.29-15.51,20.07v46.89
			h-41.23V65.3h39.23v9.85c7.85-7.85,18.43-11.68,30.1-11.68C669.68,63.47,687.56,76.79,687.56,108.17z"/>
		<circle class="st0" cx="505.77" cy="25" r="25"/>
	</g>
	<g>
		<path d="M85.28,262.99c0-20.63,15.75-35.97,36.69-35.97c9.65,0,18.5,3.15,24.7,9.45l-2.13,2.24c-6.3-6.1-14.02-8.54-22.46-8.54
			c-19,0-33.33,14.23-33.33,32.82c0,18.6,14.33,32.82,33.33,32.82c8.43,0,16.16-2.54,22.46-8.64l2.13,2.24
			c-6.2,6.4-15.04,9.55-24.7,9.55C101.03,298.97,85.28,283.62,85.28,262.99z"/>
		<path d="M154.09,272.14c0-15.65,11.08-26.73,25.91-26.73c14.94,0,25.91,11.08,25.91,26.73c0,15.65-10.98,26.73-25.91,26.73
			C165.17,298.87,154.09,287.79,154.09,272.14z M202.56,272.14c0-14.02-9.65-23.58-22.56-23.58c-12.91,0-22.56,9.55-22.56,23.58
			s9.65,23.68,22.56,23.68C192.91,295.82,202.56,286.17,202.56,272.14z"/>
		<path d="M265.9,267.57v31h-3.35v-30.79c0-12.6-6.71-19.21-18.19-19.21c-13.21,0-21.24,8.54-21.24,21.54v28.45h-3.35v-52.74h3.25
			v12.91c3.35-8.13,10.98-13.31,21.65-13.31C257.56,245.41,265.9,253.04,265.9,267.57z"/>
		<path d="M307.97,295.21c-2.54,2.44-6.71,3.66-10.57,3.66c-8.74,0-13.41-5.28-13.41-13.52v-36.58h-9.96v-2.95h9.96v-11.59h3.35
			v11.59h17.38v2.95h-17.38v36.08c0,7.11,3.56,11.08,10.37,11.08c3.25,0,6.3-1.12,8.54-3.15L307.97,295.21z"/>
		<path d="M343.19,245.41v3.35h-0.91c-12.3,0-19.51,8.23-19.51,21.75v28.05h-3.35v-52.74h3.25v12.7
			C325.71,250.19,332.82,245.41,343.19,245.41z"/>
		<path d="M346.78,272.14c0-15.65,11.08-26.73,25.91-26.73c14.94,0,25.91,11.08,25.91,26.73c0,15.65-10.98,26.73-25.91,26.73
			C357.85,298.87,346.78,287.79,346.78,272.14z M395.25,272.14c0-14.02-9.65-23.58-22.56-23.58c-12.91,0-22.56,9.55-22.56,23.58
			s9.65,23.68,22.56,23.68C385.6,295.82,395.25,286.17,395.25,272.14z"/>
		<path d="M412.57,223.16h3.35v75.41h-3.35V223.16z"/>
		<path d="M471.41,264.42v34.15h-3.25v-10.57c-3.25,6.61-9.96,10.87-19.61,10.87c-11.89,0-18.9-6-18.9-14.84
			c0-7.72,4.88-14.43,19.21-14.43h19.21v-5.18c0-10.47-5.59-15.96-16.26-15.96c-7.62,0-14.33,2.85-18.8,7.11l-1.83-2.44
			c5.08-4.78,12.7-7.72,20.73-7.72C464.5,245.41,471.41,252.02,471.41,264.42z M468.05,283.32v-10.98h-19.21
			c-11.48,0-15.85,4.88-15.85,11.48c0,7.52,5.89,12.19,15.75,12.19C458.5,296.02,464.8,291.45,468.05,283.32z"/>
		<path d="M536.61,223.16v75.41h-3.25v-14.43c-3.96,9.15-12.4,14.74-22.76,14.74c-14.63,0-25.81-10.98-25.81-26.73
			s11.18-26.73,25.81-26.73c10.16,0,18.7,5.49,22.66,14.53v-36.79H536.61z M533.25,272.14c0-14.02-9.65-23.58-22.56-23.58
			c-12.91,0-22.56,9.55-22.56,23.58s9.65,23.68,22.56,23.68C523.6,295.82,533.25,286.17,533.25,272.14z"/>
		<path d="M550.45,272.14c0-15.65,11.08-26.73,25.91-26.73c14.94,0,25.91,11.08,25.91,26.73c0,15.65-10.98,26.73-25.91,26.73
			C561.52,298.87,550.45,287.79,550.45,272.14z M598.92,272.14c0-14.02-9.65-23.58-22.56-23.58c-12.91,0-22.56,9.55-22.56,23.58
			s9.65,23.68,22.56,23.68C589.27,295.82,598.92,286.17,598.92,272.14z"/>
	</g>
</g>
</svg>
